<?xml version="1.0" encoding="utf-8"?>
<!-- Generator: Adobe Illustrator 21.0.2, SVG Export Plug-In . SVG Version: 6.00 Build 0)  -->
<svg version="1.1" id="Capa_1" xmlns="http://www.w3.org/2000/svg" xmlns:xlink="http://www.w3.org/1999/xlink" x="0px" y="0px"
	 viewBox="0 0 283.5 141.7" style="enable-background:new 0 0 283.5 141.7;" xml:space="preserve">
<style type="text/css">
	.st0{fill:#FFFFFF;}
	.st1{fill:#4CA28F;}
	.st2{fill:#4E4E4E;}
	.st3{fill:#434342;}
	.st4{fill:#454544;}
	.st5{fill:#464645;}
	.st6{fill:#398B76;}
	.st7{fill:#444443;}
	.st8{fill:#444444;}
	.st9{fill:#C1DBD8;}
	.st10{fill:#383837;}
	.st11{fill:#FDFEFE;}
	.st12{fill:#FDFDFD;}
	.st13{fill:#FEFEFE;}
	.st14{fill:#F8F8F8;}
</style>
<g>
	<path class="st0" d="M141.6,89.5c-46,0-92.1,0-138.1,0c-0.5,0-0.6-0.1-0.6-0.6c0-17,0-33.9,0-50.9c0-0.5,0.1-0.5,0.5-0.5
		c92.1,0,184.2,0,276.3,0c0.5,0,0.5,0.1,0.5,0.6c0,17,0,33.9,0,50.9c0,0.5-0.1,0.5-0.6,0.5C233.7,89.5,187.6,89.5,141.6,89.5z
		 M148.2,88.7c0.1-0.1,0.1-0.2,0.1-0.3c0-0.4,0-0.8,0-1.2c0-0.1,0.1-0.2-0.1-0.3c-0.6-0.2-1.2-0.1-1.8-0.1c-0.2-0.2-0.1-0.4-0.1-0.6
		c0-1.3,0.1-2.7,0-4c-0.2-1.5,0.6-2.2,1.8-2.7c0.1,0,0.2-0.1,0.3-0.1c1.8-0.7,2.7-0.1,2.7,1.8c0,2.4,0,4.7,0,7.1
		c0,0.4,0.1,0.5,0.5,0.5c0.9,0,1.8,0,2.7,0c1,0,1,0,1-1.1c0-0.9,0-0.9-0.8-0.9c-0.2,0-0.5,0-0.7,0c-0.4,0-0.5-0.1-0.5-0.5
		c0-1.8,0-3.6,0-5.4c0-0.3,0.1-0.5,0.3-0.6c0.8-0.6,1.7-1.1,2.7-1.2c1-0.1,1.7,0.4,1.7,1.4c0,0.3,0,0.6,0,1c0,2.2,0,4.4,0,6.6
		c0,0.5,0.2,0.6,0.6,0.6c1,0,2,0,3,0c0.4,0,0.6-0.1,0.6-0.5c0-1.4,0-1.4-1.4-1.4c-0.5,0-0.6-0.1-0.6-0.6c0-1.8,0-3.7,0-5.5
		c-0.1-2.9-1.9-4.2-4.6-3.2c-0.7,0.3-1.4,0.7-2,1.1c-0.3,0.2-0.6,0.4-0.8-0.1c-0.6-1-1.6-1.4-2.8-1.3c-1.2,0.1-2.2,0.6-3.1,1.2
		c-0.1,0.1-0.3,0.3-0.5,0.2c-0.2-0.1-0.1-0.3-0.1-0.5c0-0.1,0-0.3,0-0.4c0-0.3-0.1-0.4-0.4-0.4c-1.1,0-2.2,0-3.3,0
		c-0.3,0-0.4,0.1-0.5,0.4c-0.2,1.5-0.1,1.6,1.4,1.6c0,0,0,0,0.1,0c0.4-0.1,0.6,0.1,0.6,0.6c0,2.1,0,4.3,0,6.4c0,0.2,0.1,0.4-0.1,0.6
		c-0.6,0-1.2,0-1.8,0c-0.1,0-0.1,0-0.1,0.1c0,0.6,0,1.1,0,1.7c0,0.1,0,0.1,0.1,0.1c2,0,3.9,0,5.9,0
		C148.1,88.8,148.1,88.7,148.2,88.7z M13.4,55.9c-0.2,0.2-0.6-0.1-0.8,0.2c-0.5,0.6-0.5,1.3-0.4,2c0,0.2,0.2,0.3,0.4,0.3
		c0.2,0,0.4-0.1,0.4-0.3c0-0.5,0.1-1-0.1-1.4c0-0.1-0.2-0.3-0.1-0.4c0.2-0.2,0.4,0,0.5,0.1c0,2.2,0,4.4,0,6.6c0,0.6-0.1,1.1,0.5,1.5
		c0.3,0.2,1.3,0.4,1.4,0c0.1-0.3,0.4-0.3,0.6-0.3c1.4,0,2.8,0.1,4.2,0c0.4,0,1.1-0.4,1.4,0.4c0,0,0.1,0,0.1,0
		c0.9,0.3,1.6-0.3,1.6-1.3c0-1.8,0-3.5,0-5.3c0-0.5,0-1.1,0-1.6c0-0.3,0.2-0.4,0.4-0.3c0.2,0,0.2,0.2,0.1,0.4
		c-0.2,0.5-0.1,0.9-0.1,1.4c0,0.3,0.2,0.4,0.5,0.4c0.3,0,0.4-0.2,0.4-0.4c0-0.3,0-0.7,0-1c-0.1-0.4-0.2-1-0.5-1
		c-0.7,0-0.6-0.4-0.6-0.9c0-0.3,0-0.6,0-0.9c0-0.9-0.3-1.1-1.2-1.3c-0.8-0.1-1.7-0.1-2.5-0.2c-1.7-0.2-3.5,0-5.2,0.2
		c-0.6,0.1-0.9,0.4-0.9,1.1C13.4,54.7,13.4,55.3,13.4,55.9z M29,63.8c0.8,0.7,1.7,1.4,2.5,2.2c0.3,0.3,0.4,0.2,0.6-0.1
		c0.6-1.2,0.9-2.4,1.3-3.7c0.7-2.5,0.4-5-0.4-7.4c-0.9-2.8-2.5-5.2-4.7-7.2c-2.3-2.1-5.1-3.3-8.2-3.7c-0.4,0-0.5,0-0.5,0.5
		c0,1.3,0,2.7,0,4c0,0.1-0.1,0.3,0.1,0.4c0.9,0.3,1.9,0.4,2.7,0.8c4.5,2.1,6.7,6.8,5.7,11.5C27.7,62.4,27.8,63.2,29,63.8
		C28.9,63.8,29,63.8,29,63.8z M16.2,48.9c0,0,0.1-0.1,0.1-0.1c0-1.4,0-2.9,0-4.3c0-0.5-0.3-0.4-0.6-0.3c-1.2,0.3-2.3,0.6-3.5,1.1
		c-3.8,1.8-6.4,4.7-8,8.5c-1.1,2.6-1.5,5.3-0.9,8.1c0.4,1.9,0.9,3.7,2,5.3c1,1.6,2.2,3.1,3.6,4.5c1.1,1.1,2,2.4,2.8,3.7
		c1.9,2.8,3.7,5.7,5.4,8.5c0.3,0.5,0.8,1,0.8,1.7c-1.2,0.1-2.5,0.1-3.7,0.6c1.4,0.8,7,0.8,8.2-0.1c-1.3-0.4-2.5-0.5-3.8-0.5
		c0-0.3,0.1-0.6,0.3-0.8c0.8-1.4,1.6-2.8,2.4-4.1c2.4-4.2,4.9-8.4,8.6-11.7c0.4-0.3,0.2-0.6-0.1-0.8c-0.7-0.6-1.5-1.2-2.2-1.8
		c-0.4-0.4-0.8-0.7-1.1-1.1c-0.2-0.2-0.3-0.1-0.4,0.1c-0.3,0.4-0.6,0.8-0.9,1.1c-2.2,2-4.7,2.9-7.7,2.7c-2.3-0.2-4.3-1-6-2.6
		c-2.7-2.5-3.7-5.6-3.1-9.2c0.6-3.6,2.6-6.2,6-7.7C15,49.3,15.7,49.2,16.2,48.9z M40.3,58.7c0-1.7-0.1-3.1-0.4-4.5
		c-0.4-2.3-1.3-4.5-2.4-6.6c-1.1-2-2.4-3.7-4.2-5.1c-3.9-3.1-8.5-4.5-13.4-4.9c-0.3,0-0.4,0.1-0.4,0.4c0,0.9,0,1.8,0,2.7
		c0,0.3,0.1,0.4,0.4,0.4c1.1,0.1,2.1,0.3,3.2,0.5c4.2,1.1,7.8,3.2,10.6,6.5c1.9,2.3,2.9,4.9,3.1,7.8c0.3,4-0.6,7.8-2.2,11.4
		c-0.2,0.4-0.1,0.6,0.2,0.9c0.7,0.6,1.5,1.2,2.1,1.8c0.3,0.3,0.4,0.3,0.6-0.1C39.3,66.4,40.2,62.5,40.3,58.7z M50.2,80.6
		c0,1.9,0,3.8,0,5.7c0,0.4-0.1,0.5-0.5,0.6c-1.5,0-1.4,0-1.4,1.5c0,0.4,0.1,0.5,0.5,0.5c1.7,0,3.4,0,5.1,0c0.5,0,0.6-0.1,0.6-0.6
		c0-1.4,0-1.4-1.4-1.4c-0.5,0-0.6-0.2-0.6-0.6c0-1.5,0-3,0-4.5c0-0.4,0.1-0.5,0.5-0.5c2.1,0,4.2,0,6.3,0c0.4,0,0.5,0.2,0.5,0.5
		c0,1.4,0,2.9,0,4.3c0,0.8,0,0.8-0.8,0.8c-0.1,0-0.3,0-0.4,0c-0.5-0.1-0.8,0.1-0.7,0.7c0,0.3,0,0.5,0,0.8c-0.1,0.4,0.1,0.6,0.6,0.6
		c1.7,0,3.4,0,5.1,0c0.5,0,0.6-0.1,0.6-0.6c0-1.4,0-1.4-1.4-1.4c-0.4,0-0.6-0.2-0.6-0.6c0-0.9,0.1-1.8,0-2.6c0-2.9,0.1-5.9-0.1-8.8
		c0-0.4,0.2-0.4,0.4-0.4c0.5,0,1.1,0.2,1.4-0.1c0.3-0.3,0-0.9,0.1-1.4c0-0.4-0.1-0.6-0.5-0.6c-1.7,0-3.5,0-5.2,0
		c-0.4,0-0.5,0.2-0.5,0.6c0,1.5,0,1.5,1.5,1.5c0.4,0,0.5,0.1,0.5,0.5c0,1.3,0,2.5,0,3.8c0,0.4-0.1,0.5-0.5,0.5c-2.1,0-4.1,0-6.2,0
		c-0.4,0-0.6-0.1-0.6-0.6c0-1,0-1.9,0-2.9c0-1.3,0-1.3,1.3-1.3c0.5,0,0.8-0.1,0.7-0.7c0-0.3,0-0.6,0-0.8c0-0.4-0.1-0.6-0.6-0.6
		c-1.7,0-3.4,0-5.1,0c-0.5,0-0.6,0.1-0.6,0.6c0,1.4,0,1.4,1.4,1.5c0.4,0,0.5,0.1,0.5,0.5C50.2,76.8,50.2,78.7,50.2,80.6z
		 M244.1,80.5c0,1.9,0,3.8,0,5.7c0,0.5-0.1,0.6-0.6,0.6c-1.5,0-1.5,0-1.5,1.5c0,0.4,0.2,0.5,0.5,0.5c1,0,2,0,3,0
		c1.6,0,3.2,0.1,4.8-0.1c1.2-0.2,2.3-0.6,3.1-1.5c1.9-2.2,1.4-5.6-1.2-6.8c-0.4-0.2-0.4-0.4,0-0.6c1.5-1,1.9-3.1,1.2-4.8
		c-0.8-1.8-2.2-2.5-4-2.5c-2.3-0.1-4.6-0.1-6.9-0.1c-0.4,0-0.5,0.1-0.6,0.5c0,1.5,0,1.5,1.5,1.5c0.5,0,0.6,0.2,0.6,0.6
		C244.1,76.8,244.1,78.7,244.1,80.5z M124.1,82.2c-0.1,0.2-0.2,0.4-0.3,0.6c-0.7,2-2,3.3-4,3.8c-2.8,0.8-5.4-0.7-6.5-3
		c-0.9-1.9-0.9-3.9-0.2-5.9c0.4-1.1,1.1-2.1,2.1-2.7c2.7-1.6,5.9-1.1,7.8,1.4c0.7,0.9,1.3,1.1,2.2,1c0.4,0,0.5-0.2,0.5-0.6
		c0-1.2,0-2.3,0-3.5c0-1.2,0-1.2-1.2-1.2c-0.9,0-0.9,0-0.9,0.9c0,0.5-0.2,0.5-0.5,0.3c-1.8-1.2-3.9-1.6-6-1.3
		c-2.3,0.2-4.1,1.2-5.5,3.1c-1,1.3-1.4,2.9-1.6,4.5c-0.2,2.6,0.5,5,2.3,6.9c2.3,2.5,6.1,2.9,9.1,1.8c2.3-0.9,3.9-2.4,4.6-4.8
		c0.1-0.3,0-0.4-0.2-0.5C125.2,82.8,124.7,82.5,124.1,82.2z M200.6,72.3c-2,0-4,0-6,0c-0.6,0-0.8,0.2-0.8,0.8c0,1.4,0,2.7,0,4.1
		c0,1.5,0,1.5,1.5,1.4c0.4,0,0.5-0.1,0.5-0.5c0-1.1,0-2.1,0-3.2c0-0.4,0.1-0.5,0.5-0.5c0.8,0,1.6,0,2.4,0c0.5,0,0.6,0.1,0.6,0.6
		c0,3.7,0,7.4,0,11c0,0.6-0.1,0.8-0.7,0.7c-1.6,0-1.6,0-1.4,1.5c0,0,0,0.1,0,0.1c0,0.2,0.1,0.3,0.4,0.3c2,0,4,0,6,0
		c0.3,0,0.3-0.1,0.4-0.4c0.2-1.7,0.2-1.7-1.5-1.7c-0.1,0-0.1,0-0.2,0c-0.3,0-0.5-0.1-0.5-0.4c0-3.8,0-7.7,0-11.5
		c0-0.3,0.1-0.4,0.4-0.4c0.9,0,1.7,0,2.6,0c0.3,0,0.5,0.1,0.4,0.4c0,0.8,0,1.6,0,2.4c0,1.4,0,1.4,1.4,1.4c0.5,0,0.6-0.2,0.6-0.6
		c0-1.7,0-3.4,0-5.1c0-0.5-0.2-0.6-0.6-0.6C204.6,72.3,202.6,72.3,200.6,72.3z M210.1,80.5c0,1.9,0,3.8,0,5.7c0,0.6-0.2,0.7-0.7,0.7
		c-1.5,0-1.5,0-1.4,1.5c0,0.3,0.1,0.4,0.4,0.4c1.8,0,3.7,0,5.5,0c0.2,0,0.4,0,0.4-0.2c0-0.5,0.2-1.1-0.1-1.6
		c-0.2-0.3-0.8-0.1-1.1-0.1c-0.1,0-0.2,0-0.3,0c-0.3,0-0.5-0.1-0.5-0.4c0-1.8,0-3.7,0-5.5c0-0.3,0.1-0.5,0.3-0.6
		c0.6-0.4,1.3-0.8,2-1.1c1.4-0.4,2.5-0.2,2.5,1.7c-0.1,2.4,0,4.9,0,7.3c0,0.4,0.1,0.6,0.6,0.6c1,0,1.9,0,2.9,0
		c0.6,0,0.8-0.1,0.7-0.7c-0.1-1.2,0-1.3-1.3-1.2c-0.5,0-0.7-0.1-0.7-0.7c0-2.2,0.1-4.4-0.1-6.6c-0.1-1.2-1-2.1-2.2-2.4
		c-1.5-0.3-2.8,0.2-4,1c-0.2,0.1-0.4,0.3-0.6,0.2c-0.2-0.1-0.1-0.4-0.1-0.6c0-1.7,0-3.3,0-5c0-0.3,0-0.6-0.4-0.6c-1.2,0-2.3,0-3.5,0
		c-0.3,0-0.4,0.1-0.4,0.4c-0.1,1.6-0.1,1.6,1.4,1.6c0,0,0.1,0,0.1,0c0.5-0.1,0.6,0.1,0.6,0.6C210.1,76.7,210.1,78.6,210.1,80.5z
		 M77.7,86.2c-0.5-0.2-1-0.4-1.4-0.6c-0.3-0.2-0.5-0.1-0.7,0.1c-0.7,0.9-1.7,1.3-2.8,1.5c-2.2,0.3-3.9-0.7-4.5-2.9
		c-0.2-0.6-0.1-0.7,0.5-0.7c2.8,0,5.7,0,8.5,0c0.4,0,0.5-0.1,0.5-0.5c-0.2-1.4-0.5-2.7-1.5-3.9c-2.2-2.6-6.2-2.9-8.7-0.5
		c-1.7,1.6-2.2,3.6-1.7,5.8c0.5,2.3,2,3.7,4.2,4.3c1.4,0.4,2.8,0.4,4.2-0.1C75.7,88.3,76.9,87.5,77.7,86.2z M229.7,83.6
		c1.4,0,2.9,0,4.3,0c0.3,0,0.6,0,0.5-0.4c-0.2-0.6-0.2-1.2-0.4-1.9c-0.8-2.9-4-4.7-6.7-4.2c-2.8,0.5-4.9,2.8-5,5.9
		c0,1.4,0.4,2.8,1.4,3.9c1.2,1.3,2.6,2,4.4,2.1c2.5,0.1,4.5-0.7,6.1-2.6c0.2-0.2,0.1-0.3-0.1-0.4c-0.4-0.2-0.9-0.4-1.3-0.6
		c-0.2-0.1-0.4-0.1-0.6,0.1c-0.7,0.9-1.7,1.3-2.8,1.5c-2.3,0.4-4-0.8-4.6-3c-0.1-0.4-0.1-0.6,0.4-0.6
		C226.8,83.6,228.2,83.6,229.7,83.6z M97.1,83.6c1.4,0,2.9,0,4.3,0c0.4,0,0.5-0.1,0.4-0.5c-0.2-1.6-0.6-3.1-1.8-4.2
		c-1.6-1.6-3.6-2.2-5.8-1.6c-2.9,0.8-4.8,3.4-4.4,6.7c0.3,2,1.3,3.4,3.1,4.4c1.7,0.9,3.5,1,5.4,0.5c1.3-0.4,2.4-1.1,3.3-2.2
		c0.2-0.3,0.2-0.4-0.1-0.5c-0.4-0.2-0.8-0.3-1.2-0.5c-0.3-0.1-0.4,0-0.6,0.2c-0.5,0.6-1.1,1-1.8,1.3c-2.4,0.7-4.8,0-5.5-2.8
		c-0.1-0.4,0-0.5,0.4-0.5C94.1,83.6,95.6,83.6,97.1,83.6z M170.7,83.6c1.5,0,2.9,0,4.4,0c0.2,0,0.4,0.1,0.4-0.3
		c-0.2-2-0.8-3.7-2.5-5c-2.6-2-6.2-1.5-8.3,1c-1.2,1.5-1.5,3.2-1.2,5c0.2,1.5,1,2.7,2.3,3.6c1.1,0.7,2.2,1.1,3.4,1.2
		c2.5,0.2,4.4-0.7,6-2.6c0.1-0.1,0.3-0.2,0-0.3c-0.5-0.3-1.1-0.5-1.6-0.7c-0.1-0.1-0.3,0.1-0.3,0.2c-0.7,0.9-1.7,1.3-2.9,1.5
		c-2.2,0.4-4.1-0.8-4.6-3c-0.1-0.4,0-0.5,0.4-0.5C167.8,83.6,169.2,83.6,170.7,83.6z M140.3,83c0-3.5-2.7-6-6-6c-3.5,0-6,2.7-6,6
		c0,3.6,2.7,6,6,6C137.8,89.1,140.4,86.4,140.3,83z M267.1,82.1c0-1.4,0-2.9,0-4.3c0-0.3,0-0.5-0.4-0.5c-1.1,0-2.3,0-3.4,0
		c-0.3,0-0.4,0.1-0.4,0.4c0.1,1.9-0.3,1.5,1.5,1.6c0,0,0.1,0,0.1,0c0.4-0.1,0.5,0.1,0.5,0.5c0,1.8,0,3.6,0,5.4c0,0.2,0,0.4-0.2,0.5
		c-1,0.8-2,1.4-3.4,1.4c-0.5,0-0.9-0.3-1.1-0.8c-0.1-0.4-0.1-0.7-0.1-1.1c0-2.4,0-4.9,0-7.3c0-0.4-0.1-0.6-0.6-0.6
		c-0.8,0-1.5,0-2.3,0c-1.1,0-1-0.1-1,0.9c0,1,0,1.1,1.1,1c0.5,0,0.6,0.1,0.6,0.6c0,2,0,4.1,0,6.1c0,2.3,1.8,3.1,3.4,2.9
		c1-0.1,1.9-0.5,2.8-1.1c0.2-0.1,0.4-0.4,0.6-0.3c0.2,0.1,0.1,0.4,0.1,0.6c0,0.3,0,0.6,0.4,0.5c1.1,0,2.3,0,3.4,0
		c0.2,0,0.3-0.1,0.4-0.3c0.1-1.6,0.1-1.6-1.4-1.6c0,0,0,0-0.1,0c-0.4,0.1-0.6-0.1-0.5-0.5C267.2,84.9,267.1,83.5,267.1,82.1z
		 M270.4,86.8c0,0.1,0,0.3,0,0.4c0,1.7,0,1.7,1.7,1.5c0.1,0,0.3,0,0.3-0.2c0.1-0.4,0.3-0.3,0.5-0.2c1.7,0.8,3.4,0.8,5.1-0.1
		c1.6-0.8,2.2-2.5,1.5-4.1c-0.6-1.3-1.7-1.8-3-2.1c-1.1-0.2-2.2-0.3-3.3-0.7c-0.4-0.1-0.7-0.4-0.8-0.8c-0.1-0.5,0.1-0.9,0.5-1.2
		c0.9-0.7,2.7-0.5,3.3,0c0.5,0.3,0.9,0.7,0.9,1.4c0,0.4,0.4,0.3,0.6,0.3c0.5-0.1,1,0.2,1.3-0.2c0,0,0-0.1,0-0.2c0-1,0-2,0-3
		c0-0.1,0-0.2-0.1-0.3c-0.2-0.1-1.6-0.1-1.8,0c-0.2,0.4-0.5,0.2-0.8,0.1c-1.4-0.5-2.7-0.5-4.1,0c-1.9,0.8-2.7,3.1-1.4,4.8
		c0.6,0.9,1.6,1.2,2.6,1.5c1,0.3,2,0.4,3,0.7c0.5,0.2,0.9,0.5,0.9,1.1c0,0.6-0.3,1-0.9,1.2c-0.8,0.3-1.6,0.4-2.4,0.2
		c-0.8-0.2-1.6-0.5-1.7-1.4c-0.1-0.8-0.5-0.9-1.1-0.8c-0.2,0-0.4,0-0.5,0c-0.4,0-0.5,0.1-0.5,0.5C270.4,85.8,270.4,86.3,270.4,86.8z
		 M186.3,79.3c0-0.5,0-1,0-1.5c0-0.1,0-0.3-0.1-0.4c-0.2-0.1-1.7-0.1-1.8,0.1c-0.2,0.4-0.4,0.2-0.7,0.1c-1.4-0.5-2.8-0.6-4.2,0
		c-1.9,0.8-2.7,3.2-1.4,4.8c0.7,0.9,1.6,1.2,2.6,1.5c1,0.3,2,0.4,3,0.7c0.5,0.2,0.9,0.5,0.9,1.1c0,0.6-0.3,1-0.9,1.2
		c-0.8,0.3-1.6,0.4-2.4,0.2c-0.8-0.2-1.6-0.5-1.7-1.4c-0.1-0.7-0.4-0.8-1-0.8c-0.2,0-0.4,0-0.7,0c-0.4,0-0.5,0.2-0.5,0.5
		c0,0.6,0,1.2,0,1.9c0,1.9-0.3,1.5,1.7,1.6c0,0,0.1,0,0.1,0c0.1,0,0.2-0.1,0.3-0.2c0.1-0.5,0.3-0.3,0.5-0.1c1.7,0.8,3.4,0.7,5.1-0.1
		c1.5-0.7,2.2-2.5,1.5-4.1c-0.6-1.3-1.7-1.8-2.9-2.1c-1.1-0.3-2.2-0.3-3.3-0.7c-0.4-0.1-0.7-0.4-0.8-0.8c-0.1-0.5,0.1-0.9,0.5-1.2
		c0.8-0.7,2.6-0.5,3.3,0c0.4,0.3,0.9,0.6,0.9,1.1c0,0.5,0.3,0.6,0.7,0.6c0.3,0,0.5,0,0.8,0c0.4,0,0.6-0.1,0.6-0.6
		C186.3,80.2,186.3,79.7,186.3,79.3z M81.6,83.1c0,0.9,0,1.8,0,2.7c0,1,0,1-1.1,1c-1.4,0-1.4,0-1.3,1.4c0,0.4,0.1,0.6,0.6,0.6
		c1.7,0,3.4,0,5.1,0c1.5,0,1.5,0,1.5-1.6c0-0.3-0.1-0.4-0.4-0.4c-0.5,0-1,0-1.5,0c-0.4,0-0.6-0.1-0.6-0.6c0-1.2,0-2.5,0-3.7
		c0-2.1,1-3,3-3.2c1.7-0.1,1.7-0.1,1.6-1.8c0,0,0,0,0-0.1c0-0.3-0.1-0.4-0.4-0.4c-1.8-0.1-3.4,0.3-4.3,2c-0.1,0.1-0.1,0.2-0.3,0.2
		c-0.2,0-0.1-0.2-0.1-0.3c0-0.4,0-0.9,0-1.3c0-0.3-0.1-0.4-0.4-0.5c-1.1,0-2.2,0-3.3,0c-0.5,0-0.5,0.4-0.4,0.7
		c0.1,0.4-0.4,1.1,0.4,1.3c0.1,0,0.2,0,0.3,0c0.4,0,0.7,0,1.1,0c0.5-0.1,0.6,0.2,0.6,0.6C81.6,81,81.6,82,81.6,83.1z"/>
	<path class="st1" d="M18.1,85.5c0-0.7-0.5-1.2-0.8-1.7c-1.7-2.9-3.5-5.8-5.4-8.5C11,74,10.1,72.6,9,71.6c-1.4-1.3-2.6-2.8-3.6-4.5
		c-1-1.6-1.5-3.4-2-5.3c-0.6-2.8-0.2-5.5,0.9-8.1c1.6-3.8,4.2-6.7,8-8.5c1.1-0.5,2.3-0.9,3.5-1.1c0.3-0.1,0.6-0.1,0.6,0.3
		c0,1.4,0,2.9,0,4.3c0,0-0.1,0.1-0.1,0.1c0-0.3,0-0.5,0-0.8c0.1-0.6-0.2-0.6-0.7-0.5c-2.6,0.6-4.8,2-6.5,4.1
		c-2.4,3-3.1,6.4-2.3,10.1c0.6,2.7,2,4.9,4.2,6.6c2.8,2.2,6,2.9,9.5,2.3c2.4-0.4,4.5-1.6,6.2-3.3c0.4-0.4,0.8-0.7,1-1.3
		c0.7,0.6,1.5,1.2,2.2,1.8c0.3,0.3,0.4,0.5,0.1,0.8c-3.7,3.3-6.1,7.5-8.6,11.7c-0.8,1.4-1.6,2.8-2.4,4.1c-0.1,0.3-0.3,0.5-0.3,0.8
		C18.5,85.8,18.3,85.8,18.1,85.5z"/>
	<path class="st2" d="M40.3,58.7c-0.1,3.8-1,7.7-2.7,11.4c-0.2,0.4-0.3,0.4-0.6,0.1c-0.7-0.6-1.4-1.2-2.1-1.8
		c-0.3-0.2-0.4-0.4-0.2-0.9c1.6-3.6,2.4-7.4,2.2-11.4c-0.2-2.9-1.2-5.5-3.1-7.8c-2.8-3.4-6.3-5.5-10.6-6.5c-1-0.3-2.1-0.5-3.2-0.5
		c-0.3,0-0.4-0.2-0.4-0.4c0-0.9,0-1.8,0-2.7c0-0.3,0.1-0.4,0.4-0.4c4.9,0.4,9.5,1.8,13.4,4.9c1.8,1.4,3.1,3.2,4.2,5.1
		c1.2,2.1,2,4.3,2.4,6.6C40.2,55.6,40.3,57,40.3,58.7z"/>
	<path class="st3" d="M50.2,80.6c0-1.9,0-3.8,0-5.7c0-0.4-0.1-0.5-0.5-0.5c-1.4,0-1.4,0-1.4-1.5c0-0.5,0.2-0.6,0.6-0.6
		c1.7,0,3.4,0,5.1,0c0.5,0,0.6,0.2,0.6,0.6c0,0.3,0,0.6,0,0.8c0.1,0.6-0.2,0.7-0.7,0.7c-1.3,0-1.3,0-1.3,1.3c0,1,0,1.9,0,2.9
		c0,0.4,0.1,0.6,0.6,0.6c2.1,0,4.1,0,6.2,0c0.4,0,0.5-0.1,0.5-0.5c0-1.3,0-2.5,0-3.8c0-0.4-0.1-0.5-0.5-0.5c-1.5,0-1.5,0-1.5-1.5
		c0-0.4,0.1-0.6,0.5-0.6c1.7,0,3.5,0,5.2,0c0.4,0,0.6,0.1,0.5,0.6c-0.1,0.5,0.2,1.1-0.1,1.4c-0.3,0.3-0.9,0.1-1.4,0.1
		c-0.3,0-0.5,0-0.4,0.4c0.1,2.9,0,5.9,0.1,8.8c0,0.9,0,1.8,0,2.6c0,0.4,0.1,0.6,0.6,0.6c1.4,0,1.3,0,1.4,1.4c0,0.5-0.1,0.6-0.6,0.6
		c-1.7,0-3.4,0-5.1,0c-0.5,0-0.6-0.1-0.6-0.6c0-0.3,0-0.5,0-0.8c-0.1-0.6,0.2-0.7,0.7-0.7c0.1,0,0.3,0,0.4,0c0.8,0,0.8,0,0.8-0.8
		c0-1.4,0-2.9,0-4.3c0-0.4-0.1-0.5-0.5-0.5c-2.1,0-4.2,0-6.3,0c-0.4,0-0.5,0.1-0.5,0.5c0,1.5,0,3,0,4.5c0,0.4,0.1,0.6,0.6,0.6
		c1.4,0,1.3,0,1.4,1.4c0,0.5-0.1,0.6-0.6,0.6c-1.7,0-3.4,0-5.1,0c-0.4,0-0.5-0.1-0.5-0.5c0-1.4,0-1.5,1.4-1.5c0.4,0,0.5-0.2,0.5-0.6
		C50.2,84.3,50.2,82.4,50.2,80.6z"/>
	<path class="st4" d="M244.1,80.5c0-1.8,0-3.7,0-5.5c0-0.4-0.1-0.6-0.6-0.6c-1.5,0-1.5,0-1.5-1.5c0-0.4,0.1-0.6,0.6-0.5
		c2.3,0,4.6,0,6.9,0.1c1.8,0.1,3.2,0.8,4,2.5c0.7,1.7,0.2,3.7-1.2,4.8c-0.4,0.3-0.3,0.4,0,0.6c2.6,1.2,3.1,4.6,1.2,6.8
		c-0.8,0.9-1.9,1.3-3.1,1.5c-1.6,0.3-3.2,0.1-4.8,0.1c-1,0-2,0-3,0c-0.4,0-0.5-0.1-0.5-0.5c0-1.5,0-1.5,1.5-1.5
		c0.5,0,0.6-0.1,0.6-0.6C244.1,84.3,244.1,82.4,244.1,80.5z M246.6,84c0,0.8,0,1.5,0,2.3c0,0.4,0.1,0.5,0.5,0.5c1,0,2,0,3-0.2
		c1-0.2,1.9-1,2.1-2c0.2-1.4-0.3-2.5-1.4-3c-1.2-0.5-2.4-0.4-3.6-0.4c-0.5,0-0.6,0.2-0.6,0.6C246.6,82.5,246.6,83.3,246.6,84z
		 M246.6,76.7c0,0.7,0,1.3,0,2c0,0.3,0.1,0.4,0.4,0.4c0.8,0,1.5,0,2.3,0c1.2-0.1,1.9-0.8,2.1-2.1c0.1-1.3-0.4-2.1-1.6-2.5
		c-1-0.3-1.9-0.2-2.9-0.2c-0.3,0-0.3,0.2-0.3,0.4C246.6,75.5,246.6,76.1,246.6,76.7z"/>
	<path class="st3" d="M144,86.9c0.2-0.2,0.1-0.4,0.1-0.6c0-2.1,0-4.3,0-6.4c0-0.5-0.1-0.6-0.6-0.6c0,0,0,0-0.1,0
		c-1.5,0-1.5-0.1-1.4-1.6c0-0.3,0.2-0.4,0.5-0.4c1.1,0,2.2,0,3.3,0c0.3,0,0.4,0.1,0.4,0.4c0,0.1,0,0.3,0,0.4c0,0.2-0.1,0.4,0.1,0.5
		c0.2,0.1,0.3-0.1,0.5-0.2c0.9-0.7,2-1.2,3.1-1.2c1.2-0.1,2.1,0.3,2.8,1.3c0.3,0.5,0.6,0.3,0.8,0.1c0.6-0.5,1.3-0.9,2-1.1
		c2.8-1,4.6,0.3,4.6,3.2c0,1.8,0,3.7,0,5.5c0,0.5,0.1,0.6,0.6,0.6c1.4,0,1.4,0,1.4,1.4c0,0.5-0.1,0.6-0.6,0.5c-1,0-2,0-3,0
		c-0.5,0-0.7-0.1-0.6-0.6c0-2.2,0-4.4,0-6.6c0-0.3,0-0.6,0-1c0-1-0.7-1.6-1.7-1.4c-1,0.2-1.9,0.6-2.7,1.2c-0.2,0.2-0.3,0.4-0.3,0.6
		c0,1.8,0,3.6,0,5.4c0,0.4,0.1,0.5,0.5,0.5c0.2,0,0.5,0,0.7,0c0.8,0,0.8,0,0.8,0.9c0,1.1,0,1.1-1,1.1c-0.9,0-1.8,0-2.7,0
		c-0.4,0-0.5-0.1-0.5-0.5c0-2.4,0-4.7,0-7.1c0-1.9-1-2.6-2.7-1.8c-0.1,0-0.2,0.1-0.3,0.1c-1.2,0.5-2,1.1-1.8,2.7c0.2,1.3,0,2.7,0,4
		c0,0.2-0.1,0.4,0.1,0.6c0.3,0.4,0.7,0.2,1,0.2c0.6,0,0.6,0.3,0.6,0.7c0,0.4,0.2,0.8-0.5,0.8c-1.5,0-2.9,0-4.4,0
		c-0.7,0-0.6-0.4-0.6-0.8c0-0.5,0.1-0.7,0.6-0.7C143.3,87.1,143.7,87.3,144,86.9z"/>
	<path class="st3" d="M124.1,82.2c0.6,0.3,1.1,0.6,1.7,0.9c0.2,0.1,0.3,0.2,0.2,0.5c-0.7,2.4-2.3,3.9-4.6,4.8
		c-3,1.1-6.8,0.7-9.1-1.8c-1.8-2-2.5-4.3-2.3-6.9c0.1-1.6,0.6-3.2,1.6-4.5c1.4-1.8,3.2-2.8,5.5-3.1c2.1-0.2,4.2,0.2,6,1.3
		c0.3,0.2,0.5,0.2,0.5-0.3c0-0.9,0-0.9,0.9-0.9c1.2,0,1.2,0,1.2,1.2c0,1.2,0,2.3,0,3.5c0,0.4-0.1,0.5-0.5,0.6c-1,0.1-1.6-0.1-2.2-1
		c-1.9-2.6-5.1-3.1-7.8-1.4c-1,0.6-1.7,1.6-2.1,2.7c-0.6,2-0.7,4,0.2,5.9c1.1,2.2,3.7,3.8,6.5,3c2-0.6,3.3-1.9,4-3.8
		C123.9,82.6,124,82.4,124.1,82.2z"/>
	<path class="st5" d="M200.6,72.3c2,0,4,0,6,0c0.5,0,0.6,0.1,0.6,0.6c0,1.7,0,3.4,0,5.1c0,0.4-0.1,0.6-0.6,0.6c-1.4,0-1.4,0-1.4-1.4
		c0-0.8,0-1.6,0-2.4c0-0.3-0.1-0.5-0.4-0.4c-0.9,0-1.7,0-2.6,0c-0.3,0-0.4,0.1-0.4,0.4c0,3.8,0,7.7,0,11.5c0,0.3,0.1,0.5,0.5,0.4
		c0.1,0,0.1,0,0.2,0c1.6,0,1.6,0,1.5,1.7c0,0.3-0.1,0.4-0.4,0.4c-2,0-4,0-6,0c-0.3,0-0.4-0.1-0.4-0.3c0,0,0-0.1,0-0.1
		c-0.1-1.5-0.1-1.6,1.4-1.5c0.6,0,0.7-0.2,0.7-0.7c0-3.7,0-7.4,0-11c0-0.5-0.1-0.7-0.6-0.6c-0.8,0-1.6,0-2.4,0
		c-0.4,0-0.5,0.1-0.5,0.5c0,1.1,0,2.1,0,3.2c0,0.4-0.1,0.5-0.5,0.5c-1.5,0.1-1.5,0.1-1.5-1.4c0-1.4,0-2.7,0-4.1
		c0-0.6,0.1-0.8,0.8-0.8C196.6,72.3,198.6,72.3,200.6,72.3z"/>
	<path class="st1" d="M19.6,48.8c-0.2-0.1-0.1-0.3-0.1-0.4c0-1.3,0-2.7,0-4c0-0.4,0.2-0.5,0.5-0.5c3.1,0.4,5.8,1.6,8.2,3.7
		c2.2,2,3.8,4.4,4.7,7.2c0.8,2.4,1.1,4.9,0.4,7.4c-0.3,1.3-0.7,2.5-1.3,3.7c-0.2,0.3-0.3,0.4-0.6,0.1c-0.8-0.7-1.6-1.4-2.5-2.2
		c0.2-0.1,0.3-0.3,0.4-0.5c0.6-1.6,0.8-3.2,0.7-4.9c-0.1-2.1-0.7-4.1-1.9-5.9c-1.9-2.7-4.5-4.5-7.8-5.1c-0.7-0.1-0.8-0.1-0.8,0.6
		C19.6,48.3,19.6,48.6,19.6,48.8z"/>
	<path class="st4" d="M210.1,80.5c0-1.9,0-3.8,0-5.7c0-0.4-0.1-0.7-0.6-0.6c0,0-0.1,0-0.1,0c-1.6,0-1.5,0-1.4-1.6
		c0-0.3,0.1-0.4,0.4-0.4c1.2,0,2.3,0,3.5,0c0.4,0,0.4,0.2,0.4,0.6c0,1.7,0,3.3,0,5c0,0.2-0.1,0.4,0.1,0.6c0.2,0.1,0.4-0.1,0.6-0.2
		c1.2-0.8,2.5-1.4,4-1c1.2,0.3,2,1.2,2.2,2.4c0.2,2.2,0.1,4.4,0.1,6.6c0,0.5,0.2,0.7,0.7,0.7c1.2,0,1.2,0,1.3,1.2
		c0,0.6-0.2,0.7-0.7,0.7c-1-0.1-1.9,0-2.9,0c-0.5,0-0.6-0.2-0.6-0.6c0-2.4,0-4.9,0-7.3c0-2-1.1-2.1-2.5-1.7c-0.7,0.2-1.4,0.6-2,1.1
		c-0.2,0.1-0.3,0.3-0.3,0.6c0,1.8,0,3.7,0,5.5c0,0.4,0.1,0.5,0.5,0.4c0.1,0,0.2,0,0.3,0c0.4,0,0.9-0.2,1.1,0.1
		c0.3,0.4,0.1,1.1,0.1,1.6c0,0.2-0.2,0.2-0.4,0.2c-1.8,0-3.7,0-5.5,0c-0.3,0-0.4-0.1-0.4-0.4c-0.1-1.5-0.1-1.5,1.4-1.5
		c0.5,0,0.7-0.1,0.7-0.7C210.1,84.3,210.1,82.4,210.1,80.5z"/>
	<path class="st6" d="M27.7,66.2c-0.2,0.5-0.6,0.9-1,1.3c-1.7,1.7-3.8,2.9-6.2,3.3c-3.5,0.6-6.7-0.1-9.5-2.3
		c-2.2-1.7-3.6-3.9-4.2-6.6c-0.8-3.7-0.1-7.1,2.3-10.1c1.7-2.1,3.8-3.5,6.5-4.1c0.5-0.1,0.7-0.1,0.7,0.5c0,0.3,0,0.5,0,0.8
		c-0.6,0.4-1.2,0.4-1.8,0.7C11,51,9,53.6,8.4,57.2c-0.6,3.6,0.4,6.7,3.1,9.2c1.7,1.6,3.7,2.4,6,2.6c3,0.2,5.5-0.7,7.7-2.7
		c0.3-0.3,0.6-0.7,0.9-1.1c0.1-0.2,0.2-0.3,0.4-0.1C26.9,65.5,27.3,65.8,27.7,66.2z"/>
	<path class="st7" d="M77.7,86.2c-0.8,1.3-2,2.1-3.4,2.6c-1.4,0.4-2.8,0.5-4.2,0.1c-2.2-0.7-3.7-2-4.2-4.3c-0.5-2.2,0.1-4.2,1.7-5.8
		c2.5-2.4,6.5-2.1,8.7,0.5c1,1.1,1.3,2.5,1.5,3.9c0,0.4-0.1,0.5-0.5,0.5c-2.8,0-5.7,0-8.5,0c-0.6,0-0.7,0.1-0.5,0.7
		c0.6,2.1,2.3,3.2,4.5,2.9c1.2-0.2,2.1-0.6,2.8-1.5c0.2-0.3,0.4-0.3,0.7-0.1C76.7,85.8,77.2,86,77.7,86.2z M71.8,82c1,0,2,0,3,0
		c0.6,0,0.7-0.1,0.5-0.7c-0.6-1.4-2-2.8-4.2-2.5c-1.2,0.2-2.5,1.4-2.8,2.6c-0.1,0.4,0.1,0.6,0.5,0.6C69.8,82,70.8,82,71.8,82z"/>
	<path class="st7" d="M229.7,83.6c-1.4,0-2.9,0-4.3,0c-0.5,0-0.5,0.2-0.4,0.6c0.5,2.2,2.3,3.3,4.6,3c1.1-0.2,2.1-0.6,2.8-1.5
		c0.2-0.2,0.3-0.2,0.6-0.1c0.4,0.2,0.9,0.4,1.3,0.6c0.2,0.1,0.3,0.2,0.1,0.4c-1.6,1.9-3.6,2.7-6.1,2.6c-1.8-0.1-3.2-0.8-4.4-2.1
		c-1-1.1-1.4-2.5-1.4-3.9c0-3.1,2.2-5.4,5-5.9c2.8-0.5,6,1.3,6.7,4.2c0.2,0.6,0.2,1.3,0.4,1.9c0.1,0.4-0.2,0.4-0.5,0.4
		C232.6,83.6,231.1,83.6,229.7,83.6z M228.6,82c1,0,2,0,3,0c0.6,0,0.7-0.1,0.5-0.7c-0.3-0.7-0.7-1.2-1.3-1.7
		c-1.9-1.6-4.9-0.7-5.6,1.6c-0.2,0.7-0.2,0.8,0.6,0.8C226.6,82,227.6,82,228.6,82z"/>
	<path class="st7" d="M97.1,83.6c-1.5,0-2.9,0-4.4,0c-0.4,0-0.5,0.1-0.4,0.5c0.7,2.9,3.2,3.6,5.5,2.8c0.7-0.2,1.4-0.7,1.8-1.3
		c0.2-0.2,0.3-0.3,0.6-0.2c0.4,0.2,0.8,0.4,1.2,0.5c0.3,0.1,0.3,0.3,0.1,0.5c-0.8,1.1-2,1.8-3.3,2.2c-1.9,0.6-3.7,0.4-5.4-0.5
		c-1.8-0.9-2.8-2.4-3.1-4.4c-0.4-3.3,1.5-5.9,4.4-6.7c2.2-0.6,4.2,0.1,5.8,1.6c1.2,1.1,1.6,2.6,1.8,4.2c0,0.4-0.1,0.5-0.4,0.5
		C100,83.6,98.5,83.6,97.1,83.6z M95.9,82C95.9,82,95.9,82,95.9,82c1,0,2,0,2.9,0c0.7,0,0.8-0.1,0.5-0.8c-0.8-1.8-2.5-2.7-4.4-2.4
		c-1.1,0.2-2.3,1.4-2.5,2.5c-0.1,0.4,0,0.6,0.5,0.6C93.9,82,94.9,82,95.9,82z"/>
	<path class="st7" d="M170.7,83.6c-1.4,0-2.9,0-4.3,0c-0.4,0-0.5,0.2-0.4,0.5c0.5,2.2,2.3,3.4,4.6,3c1.2-0.2,2.1-0.6,2.9-1.5
		c0.1-0.1,0.2-0.3,0.3-0.2c0.6,0.2,1.1,0.5,1.6,0.7c0.2,0.1,0,0.3,0,0.3c-1.5,1.9-3.5,2.7-6,2.6c-1.3-0.1-2.4-0.5-3.4-1.2
		c-1.3-0.9-2.1-2.1-2.3-3.6c-0.3-1.8,0-3.5,1.2-5c2.1-2.5,5.7-3,8.3-1c1.6,1.3,2.3,3,2.5,5c0,0.4-0.2,0.3-0.4,0.3
		C173.6,83.6,172.1,83.6,170.7,83.6z M169.6,82c1,0,2,0,2.9,0c0.7,0,0.8-0.1,0.5-0.7c-0.6-1.4-2-2.7-4.2-2.5
		c-1.3,0.2-2.6,1.4-2.8,2.7c-0.1,0.4,0,0.5,0.4,0.5C167.5,82,168.5,82,169.6,82z"/>
	<path class="st7" d="M140.3,83c0,3.4-2.6,6.1-6,6c-3.3,0-6-2.4-6-6c0-3.4,2.4-6,6-6C137.6,77,140.3,79.5,140.3,83z M130.7,83.1
		c0,2.2,1.6,3.9,3.6,3.9c2.1,0,3.7-1.7,3.7-3.9c0-2.2-1.5-3.9-3.7-3.9C132.2,79.2,130.7,80.8,130.7,83.1z"/>
	<path class="st3" d="M267.1,82.1c0,1.4,0,2.8,0,4.2c0,0.4,0.1,0.6,0.5,0.5c0,0,0,0,0.1,0c1.6,0,1.6,0,1.4,1.6
		c0,0.3-0.1,0.3-0.4,0.3c-1.1,0-2.3,0-3.4,0c-0.4,0-0.4-0.2-0.4-0.5c0-0.2,0.1-0.5-0.1-0.6c-0.3-0.2-0.4,0.1-0.6,0.3
		c-0.8,0.6-1.8,1-2.8,1.1c-1.7,0.2-3.4-0.7-3.4-2.9c0-2,0-4.1,0-6.1c0-0.5-0.1-0.6-0.6-0.6c-1.1,0-1.1,0-1.1-1c0-1.1-0.1-0.9,1-0.9
		c0.8,0,1.5,0,2.3,0c0.4,0,0.6,0.1,0.6,0.6c0,2.4,0,4.9,0,7.3c0,0.4,0,0.7,0.1,1.1c0.2,0.5,0.6,0.8,1.1,0.8c1.3,0,2.4-0.6,3.4-1.4
		c0.2-0.1,0.2-0.4,0.2-0.5c0-1.8,0-3.6,0-5.4c0-0.4-0.1-0.5-0.5-0.5c0,0-0.1,0-0.1,0c-1.8,0-1.4,0.3-1.5-1.6c0-0.3,0.1-0.4,0.4-0.4
		c1.1,0,2.3,0,3.4,0c0.4,0,0.4,0.2,0.4,0.5C267.1,79.2,267.1,80.7,267.1,82.1z"/>
	<path class="st8" d="M270.4,86.8c0-0.5,0-1,0-1.5c0-0.4,0.1-0.5,0.5-0.5c0.2,0,0.4,0,0.5,0c0.7-0.1,1,0.1,1.1,0.8
		c0.1,0.9,1,1.2,1.7,1.4c0.8,0.2,1.6,0.1,2.4-0.2c0.6-0.2,0.9-0.6,0.9-1.2c0-0.6-0.3-0.9-0.9-1.1c-1-0.4-2-0.4-3-0.7
		c-1-0.3-1.9-0.6-2.6-1.5c-1.2-1.6-0.5-4,1.4-4.8c1.4-0.5,2.7-0.5,4.1,0c0.3,0.1,0.5,0.3,0.8-0.1c0.1-0.2,1.6-0.2,1.8,0
		c0.1,0.1,0.1,0.2,0.1,0.3c0,1,0,2,0,3c0,0.1,0,0.1,0,0.2c-0.4,0.4-0.9,0.2-1.3,0.2c-0.2,0-0.6,0.1-0.6-0.3c0-0.7-0.5-1-0.9-1.4
		c-0.7-0.5-2.5-0.7-3.3,0c-0.4,0.3-0.5,0.7-0.5,1.2c0.1,0.5,0.3,0.7,0.8,0.8c1.1,0.3,2.2,0.4,3.3,0.7c1.3,0.3,2.4,0.8,3,2.1
		c0.7,1.6,0.1,3.3-1.5,4.1c-1.7,0.8-3.4,0.8-5.1,0.1c-0.3-0.1-0.5-0.2-0.5,0.2c0,0.2-0.2,0.2-0.3,0.2c-1.7,0.2-1.7,0.2-1.7-1.5
		C270.4,87.1,270.4,87,270.4,86.8z"/>
	<path class="st8" d="M186.3,79.3c0,0.4,0,0.9,0,1.3c0,0.4-0.2,0.6-0.6,0.6c-0.3,0-0.5,0-0.8,0c-0.4,0-0.7-0.1-0.7-0.6
		c0-0.5-0.5-0.8-0.9-1.1c-0.7-0.5-2.5-0.7-3.3,0c-0.4,0.3-0.6,0.7-0.5,1.2c0,0.5,0.3,0.7,0.8,0.8c1.1,0.3,2.2,0.4,3.3,0.7
		c1.3,0.3,2.4,0.8,2.9,2.1c0.7,1.6,0,3.4-1.5,4.1c-1.7,0.8-3.4,0.8-5.1,0.1c-0.3-0.1-0.5-0.3-0.5,0.1c0,0.1-0.1,0.2-0.3,0.2
		c0,0-0.1,0-0.1,0c-2-0.1-1.6,0.4-1.7-1.6c0-0.6,0-1.2,0-1.9c0-0.4,0.1-0.5,0.5-0.5c0.2,0,0.4,0,0.7,0c0.6-0.1,0.9,0.1,1,0.8
		c0.1,0.9,0.9,1.3,1.7,1.4c0.8,0.2,1.6,0.2,2.4-0.2c0.6-0.2,0.9-0.6,0.9-1.2c0-0.6-0.4-0.9-0.9-1.1c-1-0.3-2-0.4-3-0.7
		c-1-0.3-1.9-0.6-2.6-1.5c-1.2-1.6-0.5-4,1.4-4.8c1.4-0.5,2.8-0.5,4.2,0c0.3,0.1,0.5,0.2,0.7-0.1c0.1-0.1,1.6-0.2,1.8-0.1
		c0.1,0.1,0.1,0.2,0.1,0.4C186.3,78.3,186.3,78.8,186.3,79.3z"/>
	<path class="st4" d="M81.6,83.1c0-1,0-2.1,0-3.1c0-0.5-0.1-0.7-0.6-0.6c-0.4,0-0.7,0-1.1,0c-0.1,0-0.2,0-0.3,0
		c-0.8-0.2-0.3-0.9-0.4-1.3c-0.1-0.3-0.1-0.7,0.4-0.7c1.1,0,2.2,0,3.3,0c0.3,0,0.4,0.1,0.4,0.5c0,0.4,0,0.9,0,1.3
		c0,0.1,0,0.3,0.1,0.3c0.1,0,0.2-0.1,0.3-0.2c0.9-1.7,2.5-2.1,4.3-2c0.3,0,0.4,0.1,0.4,0.4c0,0,0,0,0,0.1c0.1,1.7,0.1,1.7-1.6,1.8
		c-2.1,0.1-3,1.1-3,3.2c0,1.2,0,2.5,0,3.7c0,0.5,0.1,0.6,0.6,0.6c0.5,0,1,0,1.5,0c0.3,0,0.4,0.1,0.4,0.4c0.1,1.6,0.1,1.6-1.5,1.6
		c-1.7,0-3.4,0-5.1,0c-0.4,0-0.5-0.2-0.6-0.6c-0.1-1.4-0.1-1.4,1.3-1.4c1.1,0,1.1,0,1.1-1C81.6,84.9,81.6,84,81.6,83.1z"/>
	<path class="st8" d="M13.4,55.9c0-0.6,0-1.2,0-1.8c0-0.7,0.3-1.1,0.9-1.1c1.7-0.1,3.5-0.4,5.2-0.2c0.8,0.1,1.7,0,2.5,0.2
		c0.9,0.1,1.2,0.4,1.2,1.3c0,0.3,0,0.6,0,0.9c0,0.4-0.1,0.8,0.6,0.9c0.4,0,0.5,0.6,0.5,1c0.1,0.3,0,0.7,0,1c0,0.3-0.1,0.4-0.4,0.4
		c-0.3,0-0.5-0.1-0.5-0.4c0-0.5-0.1-1,0.1-1.4c0.1-0.2,0.2-0.3-0.1-0.4c-0.2,0-0.4,0-0.4,0.3c0,0.5,0,1.1,0,1.6c0,1.8,0,3.5,0,5.3
		c0,0.9-0.7,1.5-1.6,1.3c0,0-0.1,0-0.1,0c-0.2-0.8-0.9-0.5-1.4-0.4c-1.4,0.1-2.8,0-4.2,0c-0.3,0-0.5,0-0.6,0.3
		c-0.1,0.3-1.1,0.2-1.4,0c-0.5-0.4-0.5-1-0.5-1.5c0-2.2,0-4.4,0-6.6C13.4,56.2,13.4,56,13.4,55.9z M18.3,55.1c-1.2,0-2.4,0-3.6,0
		c-0.7,0-0.8,0.1-0.8,0.8c0,1.2,0,2.3,0,3.5c0,0.6,0.3,1,0.8,1.2c1.6,0.7,3.4,0.7,5.1,0.5c0.7-0.1,1.5-0.2,2.1-0.5
		c0.5-0.2,0.8-0.6,0.8-1.2c0-1.2,0-2.4,0-3.6c0-0.7-0.1-0.8-0.8-0.8C20.7,55.1,19.5,55.1,18.3,55.1z M18.3,54.5c0.8,0,1.6,0,2.5,0
		c0.4,0,0.6-0.2,0.6-0.6c0-0.4-0.2-0.6-0.6-0.6c-1.6,0-3.3,0-4.9,0c-0.4,0-0.6,0.2-0.6,0.6c0,0.4,0.2,0.6,0.7,0.6
		C16.7,54.5,17.5,54.5,18.3,54.5z M15.4,62.9c0.3,0,0.6,0,0.8,0c0.3,0,0.5-0.2,0.5-0.5c0-0.3-0.2-0.5-0.5-0.5c-0.6,0-1.2,0-1.8,0
		c-0.3,0-0.5,0.2-0.5,0.5c0,0.3,0.2,0.5,0.6,0.5C14.8,63,15.1,62.9,15.4,62.9z M21.4,61.9C21.4,61.9,21.4,61.9,21.4,61.9
		c-0.3,0-0.6,0-0.8,0c-0.3,0-0.6,0.2-0.6,0.6c0,0.3,0.3,0.5,0.6,0.5c0.5,0,1.1,0,1.6,0c0.3,0,0.6-0.2,0.6-0.5c0-0.3-0.2-0.5-0.6-0.5
		C21.9,61.9,21.6,61.9,21.4,61.9z M18.3,63.3C18.3,63.3,18.3,63.3,18.3,63.3c-0.4,0-0.8,0-1.2,0c-0.2,0-0.3,0.1-0.3,0.3
		c0,0.2,0.1,0.3,0.3,0.3c0.8,0,1.6,0,2.5,0c0.2,0,0.4-0.1,0.3-0.4c0-0.2-0.2-0.3-0.4-0.3C19.1,63.3,18.7,63.3,18.3,63.3z"/>
	<path class="st6" d="M19.6,48.8c0-0.3,0-0.5,0-0.8c0-0.7,0.1-0.7,0.8-0.6c3.3,0.6,5.9,2.4,7.8,5.1c1.2,1.7,1.8,3.7,1.9,5.9
		c0.1,1.7-0.1,3.3-0.7,4.9c-0.1,0.2-0.1,0.4-0.4,0.5c0,0,0,0-0.1,0c-1.1-0.6-1.2-1.4-0.9-2.7c1.1-4.7-1.1-9.3-5.7-11.5
		C21.5,49.2,20.5,49.1,19.6,48.8z"/>
	<path class="st9" d="M18.1,85.5c0.2,0.3,0.4,0.2,0.6,0c1.3,0,2.5,0.1,3.8,0.5c-1.1,0.9-6.7,0.9-8.2,0.1
		C15.6,85.6,16.8,85.6,18.1,85.5z"/>
	<path class="st10" d="M144,86.9c-0.2,0.4-0.6,0.2-1,0.2c-0.5,0-0.6,0.2-0.6,0.7c0,0.4,0,0.8,0.6,0.8c1.5,0,2.9,0,4.4,0
		c0.7,0,0.5-0.5,0.5-0.8c0-0.4,0-0.7-0.6-0.7c-0.3,0-0.8,0.2-1-0.2c0.6,0,1.2-0.1,1.8,0.1c0,0.1,0,0.2,0.1,0.3c0,0.4,0,0.8,0,1.2
		c0,0.1,0,0.2-0.1,0.3c0,0-0.1,0.1-0.1,0.1c-2,0-3.9,0-5.9,0c0,0-0.1-0.1-0.1-0.1c0-0.6,0-1.1,0-1.7c0,0,0.1-0.1,0.1-0.1
		C142.8,86.9,143.4,86.9,144,86.9z"/>
	<path class="st5" d="M13.4,55.9c0,0.1,0,0.3,0,0.4c-0.2-0.1-0.4-0.3-0.5-0.1c-0.1,0.1,0.1,0.3,0.1,0.4c0.1,0.5,0,0.9,0.1,1.4
		c0,0.2-0.2,0.3-0.4,0.3c-0.3,0-0.4-0.1-0.4-0.3c-0.1-0.7-0.1-1.4,0.4-2C12.9,55.8,13.2,56.1,13.4,55.9z"/>
	<path class="st3" d="M148.3,87.2c0-0.1,0-0.2-0.1-0.3C148.3,87,148.3,87.1,148.3,87.2z"/>
	<path class="st3" d="M148.2,88.7c0-0.1,0-0.2,0.1-0.3C148.3,88.5,148.3,88.6,148.2,88.7z"/>
	<path class="st3" d="M142.1,86.9C142.1,86.9,142.1,86.9,142.1,86.9C142,86.9,142.1,86.8,142.1,86.9z"/>
	<path class="st3" d="M142.1,88.6C142.1,88.7,142.1,88.7,142.1,88.6C142.1,88.8,142,88.7,142.1,88.6z"/>
	<path class="st11" d="M246.6,84c0-0.7,0-1.5,0-2.2c0-0.4,0.1-0.6,0.6-0.6c1.2,0,2.5-0.1,3.6,0.4c1.1,0.5,1.6,1.6,1.4,3
		c-0.2,1-1,1.9-2.1,2c-1,0.2-2,0.1-3,0.2c-0.4,0-0.5-0.2-0.5-0.5C246.6,85.5,246.6,84.8,246.6,84z"/>
	<path class="st11" d="M246.6,76.7c0-0.6,0-1.3,0-1.9c0-0.2,0-0.4,0.3-0.4c1,0,2-0.1,2.9,0.2c1.2,0.4,1.7,1.2,1.6,2.5
		c-0.1,1.2-0.9,2-2.1,2.1c-0.8,0.1-1.5,0-2.3,0c-0.3,0-0.4-0.1-0.4-0.4C246.6,78.1,246.6,77.4,246.6,76.7z"/>
	<path class="st12" d="M71.8,82c-1,0-2,0-3,0c-0.4,0-0.6-0.1-0.5-0.6c0.2-1.2,1.5-2.5,2.8-2.6c2.3-0.3,3.6,1,4.2,2.5
		c0.3,0.6,0.2,0.7-0.5,0.7C73.8,82,72.8,82,71.8,82z"/>
	<path class="st12" d="M228.6,82c-1,0-1.9,0-2.9,0c-0.7,0-0.8-0.1-0.6-0.8c0.8-2.4,3.7-3.2,5.6-1.6c0.6,0.5,1,1,1.3,1.7
		c0.2,0.6,0.2,0.7-0.5,0.7C230.6,82,229.6,82,228.6,82z"/>
	<path class="st12" d="M95.9,82c-1,0-2,0-3,0c-0.5,0-0.6-0.2-0.5-0.6c0.2-1.1,1.4-2.3,2.5-2.5c1.9-0.4,3.6,0.6,4.4,2.4
		c0.3,0.6,0.2,0.8-0.5,0.8C97.9,82,96.9,82,95.9,82C95.9,82,95.9,82,95.9,82z"/>
	<path class="st12" d="M169.6,82c-1,0-2.1,0-3.1,0c-0.4,0-0.5-0.1-0.4-0.5c0.2-1.3,1.5-2.5,2.8-2.7c2.2-0.3,3.5,1,4.2,2.5
		c0.3,0.6,0.2,0.7-0.5,0.7C171.5,82,170.6,82,169.6,82z"/>
	<path class="st13" d="M130.7,83.1c0-2.2,1.5-3.9,3.6-3.9c2.2,0,3.7,1.7,3.7,3.9c0,2.2-1.6,3.9-3.7,3.9
		C132.2,87,130.7,85.3,130.7,83.1z"/>
	<path class="st0" d="M18.3,55.1c1.2,0,2.4,0,3.6,0c0.7,0,0.8,0.1,0.8,0.8c0,1.2,0,2.4,0,3.6c0,0.6-0.3,1-0.8,1.2
		c-0.7,0.3-1.4,0.5-2.1,0.5c-1.7,0.1-3.4,0.2-5.1-0.5c-0.6-0.2-0.8-0.6-0.8-1.2c0-1.2,0-2.3,0-3.5c0-0.7,0.1-0.8,0.8-0.8
		C16,55.1,17.1,55.1,18.3,55.1z"/>
	<path class="st14" d="M18.3,54.5c-0.8,0-1.6,0-2.4,0c-0.4,0-0.6-0.1-0.7-0.6c0-0.4,0.2-0.6,0.6-0.6c1.6,0,3.3,0,4.9,0
		c0.4,0,0.6,0.2,0.6,0.6c0,0.4-0.2,0.6-0.6,0.6C20,54.5,19.2,54.5,18.3,54.5z"/>
	<path class="st14" d="M15.4,62.9c-0.3,0-0.6,0-0.8,0c-0.3,0-0.5-0.2-0.6-0.5c0-0.3,0.2-0.5,0.5-0.5c0.6,0,1.2,0,1.8,0
		c0.3,0,0.5,0.2,0.5,0.5c0,0.3-0.2,0.5-0.5,0.5C15.9,63,15.6,62.9,15.4,62.9z"/>
	<path class="st14" d="M21.4,61.9c0.3,0,0.5,0,0.8,0c0.3,0,0.6,0.2,0.6,0.5c0,0.3-0.2,0.5-0.6,0.5c-0.5,0-1.1,0-1.6,0
		c-0.3,0-0.6-0.2-0.6-0.5c0-0.4,0.3-0.5,0.6-0.6C20.8,61.9,21.1,61.9,21.4,61.9C21.4,61.9,21.4,61.9,21.4,61.9z"/>
	<path class="st14" d="M18.3,63.3c0.4,0,0.8,0,1.2,0c0.2,0,0.3,0.1,0.4,0.3c0,0.2-0.1,0.3-0.3,0.4c-0.8,0-1.6,0-2.5,0
		c-0.2,0-0.3-0.1-0.3-0.3c0-0.2,0.1-0.3,0.3-0.3C17.5,63.3,17.9,63.3,18.3,63.3C18.3,63.3,18.3,63.3,18.3,63.3z"/>
</g>
</svg>
