<?xml version="1.0" encoding="utf-8"?>
<!-- Generator: Adobe Illustrator 21.0.2, SVG Export Plug-In . SVG Version: 6.00 Build 0)  -->
<svg version="1.1" id="Capa_1" xmlns="http://www.w3.org/2000/svg" xmlns:xlink="http://www.w3.org/1999/xlink" x="0px" y="0px"
	 viewBox="0 0 283.5 141.7" style="enable-background:new 0 0 283.5 141.7;" xml:space="preserve">
<style type="text/css">
	.st0{fill:#FFFFFF;}
	.st1{fill:#4FA390;}
	.st2{fill:#504F4F;}
	.st3{fill:#444443;}
	.st4{fill:#434343;}
	.st5{fill:#454545;}
	.st6{fill:#474746;}
	.st7{fill:#50A391;}
	.st8{fill:#3C8C77;}
	.st9{fill:#464645;}
	.st10{fill:#C6DFDB;}
	.st11{fill:#FAFBFA;}
	.st12{fill:#F8F8F8;}
	.st13{fill:#FCFCFC;}
	.st14{fill:#E9E9E9;}
	.st15{fill:#BEBEBE;}
</style>
<g id="YA9JGe.tif">
	<g>
		<path class="st0" d="M141.7,104.5c-45.9,0-91.8,0-137.7,0c-0.4,0-0.5-0.1-0.5-0.5c0-24.1,0-48.2,0-72.3c0-0.4,0.1-0.5,0.5-0.5
			c91.8,0,183.7,0,275.5,0c0.4,0,0.5,0.1,0.5,0.5c0,24.1,0,48.2,0,72.3c0,0.4-0.1,0.5-0.5,0.5C233.6,104.5,187.6,104.5,141.7,104.5z
			 M28.5,56.5L28.5,56.5c0,0.1,0.1,0.1,0.1,0.1c0.1,0.1,0.1,0.1,0.2,0.2c3.3,2.5,4.6,6.4,3.5,10.3c-0.3,0.9-0.3,0.9,0.5,1.4
			c0.1,0,0.1,0.1,0.2,0.1l0,0c0,0.1,0.1,0.1,0.1,0.1l0,0c0,0,0.1,0.1,0.1,0.1l0,0c0,0.1,0.1,0.1,0.1,0.1l0,0
			c0.7,0.6,1.5,1.3,2.2,1.9c0.5,0.4,0.5,0.4,0.8-0.2c1.5-3.3,2-6.8,0.7-10.3c-2-5.7-6-9.2-12-10.1c-0.4-0.1-0.6,0-0.6,0.5
			c0,1.2,0,2.5,0,3.7c0,0.2-0.1,0.4,0.2,0.5l0,0c0.1,0.1,0.2,0.1,0.4,0.1c0.1,0,0.3,0.1,0.4,0.1c0,0,0.1,0,0.1,0c0.1,0,0.1,0,0.2,0
			c0.2,0.1,0.4,0.2,0.6,0.2l0,0l0,0c0.1,0.1,0.3,0.2,0.5,0.2c0.1,0,0.1,0,0.2,0c0.1,0,0.1,0.1,0.2,0.1l0,0c0,0.1,0.1,0.1,0.2,0.1
			l0,0c0.1,0.1,0.1,0.1,0.2,0.1l0,0c0,0.1,0.1,0.1,0.2,0.1l0,0c0.1,0,0.1,0.1,0.2,0.1l0,0c0,0.1,0.1,0.1,0.1,0.1l0,0l0,0
			C28.4,56.4,28.4,56.5,28.5,56.5z M18.2,56.6c0.1,0,0.1,0,0.1-0.1l0,0c0.1,0,0.1-0.1,0.2-0.1l0,0c0.1,0,0.1,0,0.2-0.1l0,0
			c0.1,0,0.1-0.1,0.2-0.1l0,0l0,0c0.1,0,0.1,0,0.1-0.1l0,0c0.1,0,0.2,0,0.3-0.1l0,0l0,0c0.1,0,0.1,0,0.1-0.1l0,0
			c0.1,0,0.2,0,0.3-0.1l0,0l0,0c0.2,0,0.4-0.1,0.5-0.2l0,0c0.3,0,0.5-0.1,0.7-0.2l0,0l0,0c0.1,0,0.2,0,0.3-0.1l0,0
			c0.1,0,0.1,0,0.1-0.1c0.1-0.4,0.1-0.8,0-1.2c0-1,0-2,0-3c0-0.3-0.1-0.4-0.4-0.3c-0.1,0-0.3,0-0.4,0.1C12.6,52.3,8.3,60.7,9.5,66.8
			c0.5,2.3,1.2,4.5,2.6,6.4c0.9,1.3,2.1,2.4,3.1,3.6c3,3.8,5.5,7.9,7.9,12.1C23,89.1,22.7,89,22.5,89c-0.8,0-1.7,0.1-2.5,0.3
			c-0.2,0.1-0.5,0.1-0.5,0.4c0,0.2,0.3,0.2,0.5,0.3c0,0,0.1,0,0.2,0c2.2,0.4,4.5,0.4,6.7,0c0.3-0.1,0.8-0.1,0.8-0.5
			c0-0.3-0.5-0.4-0.8-0.4c-1-0.3-2-0.2-2.9-0.2c0.1-0.1,0.1-0.3,0.2-0.4c1.5-2.7,3-5.4,4.7-8c1.3-2.1,2.7-4.2,4.6-5.9
			c0.4-0.4,0.7-0.8,1.1-1.2c0.2-0.2,0.2-0.4,0-0.6c-0.8-0.6-1.5-1.2-2.2-1.8c-0.1-0.1-0.1-0.2-0.3-0.2c0,0-0.1-0.1-0.1-0.1l0,0
			c0-0.1-0.1-0.1-0.1-0.1l0,0c0,0-0.1-0.1-0.1-0.1l0,0c0-0.1-0.1-0.1-0.1-0.1c-0.3-0.5-0.5-0.4-0.9,0c-2.5,2.9-5.7,4-9.4,3.1
			c-5.5-1.3-8.5-7.5-6.3-12.8c0.6-1.5,1.6-2.6,2.7-3.7c0,0,0.1-0.1,0.1-0.1c0,0,0.1-0.1,0.1-0.1c0.1,0,0.1-0.1,0.2-0.1l0,0
			c0,0,0,0,0,0C18.1,56.7,18.2,56.6,18.2,56.6L18.2,56.6z M44,62.4c0-2.6-1.2-6.4-3.4-9.8c-1.9-2.9-4.5-4.8-7.7-6.1
			c-2.5-1-5.1-1.7-7.8-1.9c-0.5,0-0.6,0.1-0.6,0.6c0,0.7,0,1.5,0,2.2c0,0.4,0.1,0.5,0.5,0.6c4.2,0.4,7.9,2,11,4.8
			c3.2,2.9,4.8,6.5,4.6,10.9c-0.1,3-0.9,5.9-2.1,8.7c-0.2,0.4-0.1,0.6,0.2,0.8c0.7,0.6,1.4,1.1,2,1.7c0.4,0.3,0.5,0.3,0.7-0.1
			C43,71.3,43.9,67.7,44,62.4z M53.1,84.5c0,1.8,0,3.5,0,5.3c0,0.3,0,0.5-0.4,0.5c-0.4,0-1-0.2-1.2,0.1c-0.2,0.3,0,0.8-0.1,1.3
			c-0.1,0.5,0.2,0.6,0.6,0.5c1.6,0,3.1,0,4.7,0c0.5,0,0.6-0.1,0.6-0.6c0-1.3,0-1.3-1.3-1.3c-0.4,0-0.6-0.1-0.5-0.6
			c0-1.4,0-2.8,0-4.2c0-0.4,0.1-0.5,0.5-0.5c1.9,0,3.8,0,5.7,0c0.4,0,0.5,0.1,0.5,0.5c0,1.4,0,2.8,0,4.3c0,0.3-0.1,0.5-0.5,0.5
			c-1.3,0-1.3,0-1.3,1.4c0,0.4,0.1,0.5,0.5,0.5c1.6,0,3.2,0,4.8,0c0.5,0,0.6-0.1,0.6-0.6c0-1.3,0-1.3-1.3-1.3
			c-0.3,0-0.5-0.1-0.5-0.5c0-3.5,0-7.1,0-10.6c0-0.3,0.1-0.4,0.4-0.4c0.5,0,1.1,0.2,1.3-0.1c0.2-0.3,0.1-0.9,0.1-1.4c0,0,0,0,0-0.1
			c0-0.3-0.1-0.4-0.4-0.4c-1.7,0-3.4,0-5.2,0c-0.2,0-0.4,0-0.4,0.3c0,0.5-0.2,1.1,0.1,1.5c0.2,0.3,0.8,0.1,1.2,0.1c0,0,0.1,0,0.1,0
			c0.3,0,0.4,0.1,0.4,0.4c0,1.2,0,2.4,0,3.6c0,0.3-0.1,0.4-0.4,0.4c-1.9,0-3.9,0-5.8,0c-0.3,0-0.5-0.2-0.4-0.5c0-1.2,0-2.3,0-3.5
			c0-0.3,0.1-0.4,0.4-0.4c0.4,0,1,0.2,1.3-0.1c0.3-0.3,0-0.9,0.1-1.4c0-0.4-0.1-0.5-0.5-0.5c-1.6,0-3.1,0-4.7,0
			c-0.7,0-0.7,0-0.7,0.7c0,1.2,0,1.2,1.2,1.2c0.5,0,0.5,0.2,0.5,0.6C53.1,81.1,53.1,82.8,53.1,84.5z M153.5,88.2
			C153.5,88.2,153.5,88.2,153.5,88.2c0,1.2,0,2.4,0,3.5c0,0.4,0.1,0.5,0.5,0.5c0.9,0,1.8,0,2.7,0c0.7,0,0.7,0,0.7-0.7
			c0-1.2,0-1.2-1.1-1.2c-0.8,0-0.8,0-0.8-0.7c0-1.9,0-3.7-0.1-5.6c-0.1-1.7-1.2-2.8-2.9-2.7c-0.4,0-0.9,0.1-1.3,0.3
			c-0.8,0.3-1.5,0.7-2.1,1.1c-0.2,0.1-0.4,0.3-0.6,0c-0.7-1.3-1.9-1.5-3.2-1.3c-0.9,0.2-1.6,0.5-2.3,1c-0.1,0.1-0.3,0.3-0.4,0.2
			c-0.2-0.1-0.1-0.3-0.1-0.5c0-0.1,0-0.1,0-0.2c0.1-0.4-0.1-0.6-0.5-0.5c-0.9,0-1.9,0-2.8,0c-0.5,0-0.6,0.1-0.6,0.6
			c0,1.3,0,1.3,1.3,1.3c0.4,0,0.5,0.1,0.5,0.5c0,1.9,0,3.9,0,5.8c0,0.4-0.1,0.6-0.6,0.6c-1.5,0-1.5,0-1.4,1.5c0,0.3,0.1,0.3,0.4,0.3
			c1.7,0,3.4,0,5.2,0c0.2,0,0.4,0,0.4-0.2c0-0.5,0.2-1.1-0.1-1.5c-0.2-0.3-0.8-0.1-1.2-0.1c-0.1,0-0.1,0-0.2,0
			c-0.3,0-0.5-0.1-0.5-0.4c0-1.6,0-3.3,0-4.9c0-0.2,0-0.4,0.1-0.5c0.9-0.7,1.8-1.3,3-1.3c0.5,0,0.9,0.3,1.1,0.8
			c0.1,0.4,0.2,0.8,0.2,1.3c0,2.1,0,4.3,0,6.4c0,0.2-0.1,0.5,0.3,0.5c1.1,0,2.2,0,3.3,0c0.2,0,0.3-0.1,0.3-0.3
			c0.1-1.5,0.1-1.5-1.4-1.5c0,0,0,0-0.1,0c-0.3,0-0.5-0.1-0.5-0.4c0-1.6,0-3.3,0-4.9c0-0.2,0-0.4,0.2-0.6c0.7-0.5,1.4-1,2.3-1.2
			c1.2-0.2,1.8,0.3,1.8,1.5C153.5,85.9,153.5,87,153.5,88.2z M233.6,84.5C233.6,84.5,233.6,84.5,233.6,84.5c0,1.8,0,3.5,0,5.3
			c0,0.4-0.1,0.6-0.5,0.6c-1.4,0-1.3,0-1.4,1.4c0,0.4,0.2,0.5,0.5,0.5c2,0,3.9,0,5.9,0c0.6,0,1.2-0.1,1.8-0.2
			c1.9-0.4,3.2-1.7,3.5-3.3c0.3-1.9-0.4-3.7-2.1-4.5c-0.4-0.2-0.3-0.3,0-0.5c1.5-1.2,1.9-3.3,0.9-5c-0.8-1.3-2.1-1.8-3.5-1.9
			c-2.2,0-4.3,0-6.5-0.1c-0.4,0-0.4,0.1-0.4,0.5c0,1.5,0,1.5,1.4,1.5c0.3,0,0.5,0.1,0.5,0.5C233.6,81,233.6,82.7,233.6,84.5z
			 M123.5,79.3c0-0.3,0-0.6,0-1c0-1.6,0-1.6-1.6-1.6c-0.4,0-0.5,0.1-0.5,0.5c0,0.1,0,0.2,0,0.3c0,0.4-0.1,0.5-0.4,0.3
			c-1.3-0.9-2.8-1.3-4.3-1.3c-2.1-0.1-4,0.5-5.6,2c-1.7,1.6-2.3,3.6-2.3,5.8c0,3.2,1.2,5.8,4.2,7.3c1.8,0.9,3.8,1,5.8,0.4
			c2.5-0.7,4.2-2.3,5-4.8c0.1-0.2,0-0.3-0.2-0.4c-0.5-0.3-1-0.5-1.5-0.8c-0.2-0.1-0.3-0.1-0.4,0.1c-0.1,0.5-0.3,0.9-0.6,1.3
			c-1.8,3.3-6.3,3.8-8.7,0.8c-1.2-1.5-1.5-3.3-1.2-5.2c0.2-1.5,1-2.8,2.3-3.7c2.4-1.6,5.6-1,7.2,1.3c0.6,0.8,1.2,1,2,0.9
			c0.1,0,0.1,0,0.2,0c0.3,0,0.4-0.1,0.4-0.4C123.5,80.7,123.5,80,123.5,79.3z M193.1,76.8c-1.9,0-3.8,0-5.7,0
			c-0.5,0-0.6,0.1-0.6,0.6c0,1.3,0,2.6,0,3.9c0,1.4,0,1.4,1.4,1.4c0.4,0,0.5-0.1,0.5-0.5c0-1,0-1.9,0-2.9c0-0.5,0.1-0.6,0.6-0.6
			c0.7,0,1.4,0,2.1,0c0.4,0,0.5,0.1,0.5,0.5c0,3.5,0,6.9,0,10.4c0,0.5-0.1,0.6-0.6,0.6c-1.4,0-1.4,0-1.4,1.4c0,0.4,0.1,0.5,0.5,0.5
			c1.5,0,2.9,0,4.4,0c1.5,0,1.5,0,1.4-1.5c0-0.3-0.1-0.4-0.4-0.4c-0.4,0-0.7,0-1.1,0c-0.3,0-0.5-0.1-0.5-0.4c0-3.6,0-7.1,0-10.7
			c0-0.3,0.1-0.4,0.4-0.4c0.8,0,1.6,0,2.4,0c0.3,0,0.4,0.2,0.4,0.5c0,0.7,0,1.4,0,2.1c0,1.4,0,1.4,1.4,1.4c0.4,0,0.5-0.1,0.5-0.5
			c0-1.6,0-3.3,0-4.9c0-0.4-0.2-0.5-0.6-0.5C196.9,76.8,195,76.8,193.1,76.8z M202,84.5c0,1.8,0,3.5,0,5.3c0,0.4-0.1,0.5-0.5,0.5
			c-1.5,0-1.5,0-1.4,1.5c0,0,0,0.1,0,0.1c0,0.2,0.1,0.3,0.3,0.3c1.8,0,3.5,0,5.3,0c0.2,0,0.3,0,0.3-0.3c0-0.5,0.1-1.1-0.1-1.5
			c-0.2-0.3-0.8-0.1-1.2-0.1c0,0-0.1,0-0.1,0c-0.3,0-0.4-0.1-0.4-0.4c0-1.7,0-3.4,0-5.1c0-0.2,0.1-0.4,0.2-0.5
			c0.8-0.6,1.6-1,2.6-1.2c0.9-0.1,1.4,0.3,1.6,1.2c0,0.4,0.1,0.7,0.1,1.1c0,2.1,0,4.2,0,6.2c0,0.4,0.1,0.5,0.5,0.5c1,0,1.9,0,2.9,0
			c0.5,0,0.6-0.1,0.6-0.6c0-1.3,0-1.3-1.3-1.3c-0.4,0-0.5-0.1-0.5-0.5c0-1,0-2,0-3c0-1.1,0-2.3-0.1-3.4c-0.2-1.1-1-2-2.1-2.1
			c-1.4-0.2-2.6,0.3-3.7,1c-0.1,0.1-0.2,0.3-0.4,0.2c-0.2-0.1-0.1-0.3-0.1-0.5c0-1.6,0-3.1,0-4.7c0-0.4-0.1-0.5-0.5-0.5
			c-1,0-2.1,0-3.1,0c-0.3,0-0.5,0.1-0.5,0.4c0,1.4,0,1.5,1.4,1.5c0.4,0,0.6,0.1,0.6,0.6C202,81,202,82.8,202,84.5z M96.8,87.4
			c1.4,0,2.7,0,4.1,0c0.2,0,0.4,0.1,0.4-0.3c-0.1-1.3-0.4-2.6-1.2-3.7c-2.2-2.6-5.5-3-8.2-0.8c-2.3,1.8-2.6,5.8-0.6,7.9
			c1.1,1.2,2.5,1.9,4.2,1.9c2.2,0.1,4.1-0.6,5.6-2.3c0.2-0.3,0.3-0.4-0.1-0.6c-0.4-0.2-0.8-0.3-1.2-0.5c-0.2-0.1-0.4-0.1-0.6,0.2
			c-0.3,0.4-0.7,0.7-1.1,0.9c-2,1.1-5,0.7-5.7-2.2c-0.1-0.4,0-0.5,0.4-0.5C94.1,87.4,95.5,87.4,96.8,87.4z M74.4,87.4
			c1.4,0,2.7,0,4.1,0c0.2,0,0.4,0,0.4-0.3c-0.1-1.3-0.4-2.6-1.2-3.7c-2.1-2.6-5.6-3-8.2-0.8c-2.3,1.9-2.5,5.8-0.5,7.9
			c1.7,1.8,3.8,2.2,6.1,1.8c1.5-0.3,2.7-1,3.6-2.3c0.1-0.1,0.3-0.2,0.1-0.4c-0.5-0.3-1.1-0.5-1.6-0.7c-0.2-0.1-0.3,0.1-0.4,0.2
			c-0.5,0.6-1.1,1-1.8,1.2c-2.2,0.8-4.3-0.3-4.9-2.5c-0.1-0.5-0.1-0.6,0.4-0.6C71.8,87.4,73.1,87.4,74.4,87.4z M165.3,87.4
			c1.4,0,2.7,0,4.1,0c0.2,0,0.5,0.1,0.4-0.3c-0.1-1.3-0.4-2.6-1.3-3.7c-1.9-2.4-5.5-3-8.1-0.8c-2.3,1.9-2.6,5.8-0.6,8
			c1.6,1.7,3.6,2.2,5.9,1.8c1.6-0.3,2.9-1,3.9-2.3c0.1-0.1,0.3-0.2,0-0.3c-0.5-0.2-1-0.5-1.5-0.7c-0.2-0.1-0.3,0.1-0.4,0.2
			c-0.3,0.4-0.7,0.7-1.1,0.9c-2,1.1-5,0.7-5.7-2.2c-0.1-0.4,0-0.5,0.4-0.5C162.7,87.4,164,87.4,165.3,87.4z M220.3,87.4
			C220.3,87.4,220.3,87.4,220.3,87.4c1.3,0,2.7,0,4,0c0.2,0,0.5,0.1,0.5-0.3c-0.1-1.3-0.4-2.6-1.2-3.6c-1.9-2.5-5.5-3-8.1-0.9
			c-2.3,1.9-2.7,5.8-0.7,8c1.2,1.3,2.6,1.9,4.3,1.9c2.2,0.1,4.1-0.6,5.5-2.4c0.2-0.3,0.1-0.4-0.1-0.5c-0.4-0.2-0.8-0.3-1.1-0.5
			c-0.3-0.1-0.5-0.1-0.7,0.2c-0.3,0.4-0.6,0.6-1,0.9c-2,1.1-5,0.8-5.8-2.2c-0.1-0.4,0-0.5,0.4-0.5C217.6,87.4,218.9,87.4,220.3,87.4
			z M255.1,85.9c0-1.3,0-2.7,0-4c0-0.2,0-0.4-0.3-0.4c-1.1,0-2.2,0-3.3,0c-0.3,0-0.3,0.1-0.4,0.4c-0.1,1.5-0.1,1.5,1.4,1.5
			c0,0,0,0,0.1,0c0.4,0,0.5,0.1,0.5,0.5c0,1.6,0,3.3,0,4.9c0,0.2,0,0.4-0.2,0.5c-0.8,0.7-1.7,1.2-2.8,1.3c-0.8,0.1-1.3-0.4-1.4-1.2
			c0-0.3,0-0.5,0-0.8c0-2.2,0-4.4,0-6.6c0-0.4-0.1-0.5-0.5-0.5c-0.8,0-1.5,0-2.3,0c-0.9,0-0.8-0.1-0.8,0.8c0,1.1,0,1.1,1,1.1
			c0.4,0,0.5,0.2,0.5,0.5c0,1,0,2,0,3c0,0.9,0,1.9,0.1,2.8c0.1,1.9,1.4,2.9,3.3,2.7c0.9-0.1,1.8-0.5,2.6-1c0.1-0.1,0.3-0.3,0.4-0.2
			c0.2,0.1,0.1,0.3,0.1,0.5c0,0.2-0.1,0.5,0.3,0.5c1.1,0,2.2,0,3.3,0c0.2,0,0.3-0.1,0.3-0.3c0.1-1.5,0.1-1.5-1.4-1.5c0,0,0,0-0.1,0
			c-0.4,0.1-0.5-0.1-0.5-0.5C255.2,88.5,255.1,87.2,255.1,85.9z M131.5,92.5c3.2,0,5.6-2.4,5.6-5.6c0-3.2-2.4-5.6-5.6-5.6
			c-3.2,0-5.6,2.4-5.6,5.6C125.8,90.1,128.2,92.5,131.5,92.5z M171.6,90.3c0,0.2,0,0.3,0,0.5c0,1.4,0,1.4,1.4,1.4
			c0.2,0,0.4,0.1,0.5-0.2c0.1-0.4,0.3-0.2,0.5-0.1c1.5,0.6,3,0.6,4.4,0c2.2-0.9,2.6-3.6,0.9-5.2c-0.6-0.5-1.3-0.7-2-0.8
			c-1-0.2-2-0.3-3-0.6c-0.4-0.1-0.7-0.3-0.7-0.8c-0.1-0.5,0.1-0.8,0.5-1c0.8-0.5,2.2-0.5,3.1,0.1c0.3,0.2,0.7,0.5,0.7,0.9
			c0,0.7,0.4,0.6,0.8,0.6c0.3,0,0.5,0,0.8,0c0.2,0,0.3-0.1,0.3-0.3c0-1,0-1.9,0-2.9c0-0.1,0-0.3-0.1-0.3c-0.6-0.1-1.2-0.2-1.6,0.1
			c-0.4,0.2-0.6,0.2-0.8,0.1c-1.1-0.4-2.2-0.5-3.3-0.1c-1.2,0.4-2,1.1-2.3,2.3c-0.3,1.3,0.2,2.3,1.3,3.1c0.5,0.3,1.1,0.5,1.7,0.7
			c0.9,0.2,1.8,0.4,2.7,0.6c0.5,0.1,0.8,0.5,0.9,1c0,0.5-0.3,0.9-0.8,1.1c-0.7,0.3-1.5,0.4-2.3,0.2c-0.7-0.2-1.4-0.5-1.6-1.3
			c-0.1-0.7-0.5-0.8-1.1-0.7c-0.2,0-0.4,0-0.6,0c-0.3,0-0.4,0.1-0.4,0.4C171.6,89.4,171.6,89.8,171.6,90.3z M258.1,90.4
			c0,0.5,0,1,0,1.5c0,0.1,0,0.4,0.2,0.3c0.6-0.1,1.3,0.4,1.8-0.3c0.1-0.1,0.2-0.1,0.3,0c1.2,0.6,2.6,0.6,3.9,0.3
			c2.1-0.4,3.2-2.6,2.3-4.4c-0.6-1.1-1.6-1.6-2.7-1.8c-1-0.2-2-0.3-3-0.6c-0.4-0.1-0.7-0.4-0.7-0.8c-0.1-0.4,0.1-0.8,0.4-1
			c1-0.7,2.7-0.5,3.5,0.4c0.2,0.2,0.4,0.3,0.4,0.6c-0.1,0.5,0.2,0.5,0.6,0.5c0.3,0,0.6,0,1,0c0.3,0,0.4-0.1,0.4-0.4
			c0-0.9,0-1.9,0-2.8c0-0.1,0-0.3-0.2-0.4c-0.5,0-1.2-0.2-1.6,0.1c-0.4,0.2-0.6,0.2-0.9,0.1c-1.1-0.4-2.2-0.5-3.3-0.1
			c-1.2,0.4-2,1.1-2.2,2.4c-0.2,1.3,0.2,2.3,1.3,3c0.5,0.3,1.1,0.5,1.7,0.7c0.9,0.2,1.7,0.4,2.6,0.6c0.5,0.1,0.9,0.4,0.9,1
			c0,0.6-0.3,0.9-0.8,1.1c-0.7,0.3-1.5,0.3-2.2,0.2c-0.7-0.2-1.4-0.5-1.5-1.2c-0.1-0.8-0.6-0.9-1.2-0.8c-0.1,0-0.3,0-0.4,0
			c-0.4,0-0.5,0.1-0.4,0.5C258.2,89.4,258.1,89.9,258.1,90.4z M84.3,83.4c-0.1,0-0.1,0-0.2,0c0-0.5,0-1,0-1.4c0-0.3-0.1-0.5-0.4-0.5
			c-0.7,0-1.4,0-2.1,0c-1.4,0-1.4,0-1.4,1.4c0,0,0,0.1,0,0.1c0,0.3,0.1,0.4,0.4,0.4c0.4,0,0.9,0,1.3,0c0.4,0,0.5,0.1,0.5,0.5
			c0,1.9,0,3.7,0,5.6c0,0.8,0,0.8-0.8,0.8c-1.4,0-1.4,0-1.4,1.4c0,0.4,0.1,0.5,0.5,0.5c1.6,0,3.2,0,4.8,0c1.5,0,1.5,0,1.4-1.5
			c0-0.3-0.1-0.4-0.4-0.4c-0.5,0-1,0-1.6,0c-0.3,0-0.4-0.1-0.4-0.4c0-1.3-0.1-2.5,0.1-3.8c0.1-1.1,0.5-2.1,1.8-2.5
			c0.3-0.1,0.7-0.1,1-0.2c0.5-0.1,1.2,0.2,1.4-0.3c0.2-0.4,0-1,0.1-1.5c0,0,0-0.1,0-0.1c0-0.2-0.1-0.3-0.2-0.3c-1.1,0-2.2,0-3.1,0.7
			C85,82.4,84.6,82.9,84.3,83.4z M18.9,65.5C18.9,65.5,18.9,65.5,18.9,65.5c0,0.9,0,1.8,0,2.7c0,0.5,0,0.9,0.4,1.3
			c0.3,0.2,1.2,0.3,1.4,0c0.1-0.2,0.3-0.2,0.5-0.2c1.5,0,3.1,0,4.6,0c0.2,0,0.5,0,0.5,0.3c0,0.1,0.1,0.1,0.2,0.2
			c0.9,0.1,1.6-0.1,1.6-1.2c0-1.9,0-3.9,0-5.8c0-0.2,0-0.4,0-0.7c0-0.2,0.2-0.3,0.3-0.2c0.2,0,0.1,0.2,0,0.3
			c-0.2,0.5-0.1,0.9-0.1,1.4c0,0.3,0.1,0.4,0.4,0.4c0.3,0,0.4-0.1,0.4-0.4c0-0.3,0-0.7,0-1c-0.1-0.4-0.1-0.9-0.5-0.9
			c-0.6,0-0.5-0.4-0.5-0.8c0-0.3,0-0.6,0-1c0-0.7-0.3-1-1-1c-0.7-0.1-1.3-0.1-2-0.2c-1.8-0.1-3.6,0-5.4,0.2
			c-0.5,0.1-0.8,0.4-0.8,0.9c0,0.4,0,0.8,0,1.2c0,0.4,0,0.8-0.5,0.7c-0.1,0-0.2,0.1-0.2,0.2c-0.4,0.5-0.3,1.2-0.3,1.8
			c0,0.3,0.2,0.3,0.4,0.3c0.2,0,0.4-0.1,0.4-0.3c0-0.5,0.1-1-0.1-1.4c0-0.1-0.1-0.2,0-0.3c0.1,0,0.3,0,0.3,0.1c0,0.1,0,0.3,0,0.4
			C18.9,63.5,18.9,64.5,18.9,65.5z"/>
		<path class="st1" d="M23.2,88.9c-2.4-4.2-4.9-8.3-7.9-12.1c-1-1.2-2.2-2.3-3.1-3.6c-1.4-1.9-2.2-4.1-2.6-6.4
			c-1.2-6.1,3.1-14.6,11.3-16.3c0.1,0,0.3,0,0.4-0.1c0.3-0.1,0.4,0,0.4,0.3c0,1,0,2,0,3c-0.2,0-0.5,0-0.7,0.1
			c-2.4,0.6-4.5,1.8-6,3.8c-2.2,2.8-2.9,5.9-2.2,9.3c0.5,2.5,1.9,4.6,3.9,6.2c3,2.3,6.4,2.9,10,1.9c1.8-0.5,3.3-1.5,4.6-2.7
			c0.4-0.4,0.9-0.7,1-1.3c0.7,0.6,1.5,1.2,2.2,1.8c0.3,0.2,0.3,0.4,0,0.6c-0.4,0.4-0.7,0.8-1.1,1.2c-1.9,1.7-3.3,3.8-4.6,5.9
			c-1.6,2.6-3.2,5.3-4.7,8C24,88.7,24,88.9,23.9,89C23.6,89.6,23.4,89.2,23.2,88.9z"/>
		<path class="st2" d="M44,62.4c0,5.3-0.9,8.9-2.5,12.4c-0.2,0.4-0.4,0.5-0.7,0.1c-0.6-0.6-1.3-1.2-2-1.7c-0.3-0.2-0.3-0.4-0.2-0.8
			c1.2-2.8,2-5.7,2.1-8.7c0.2-4.3-1.4-8-4.6-10.9c-3.1-2.8-6.8-4.4-11-4.8c-0.4,0-0.5-0.2-0.5-0.6c0-0.7,0-1.5,0-2.2
			c0-0.5,0.1-0.6,0.6-0.6c2.7,0.2,5.3,0.8,7.8,1.9c3.1,1.3,5.8,3.2,7.7,6.1C42.8,56.1,44,59.8,44,62.4z"/>
		<path class="st3" d="M53.1,84.5c0-1.7,0-3.4,0-5.2c0-0.4-0.1-0.6-0.5-0.6c-1.2,0-1.2,0-1.2-1.2c0-0.7,0-0.7,0.7-0.7
			c1.6,0,3.1,0,4.7,0c0.4,0,0.5,0.1,0.5,0.5c0,0.5,0.2,1-0.1,1.4c-0.3,0.3-0.8,0.1-1.3,0.1c-0.3,0-0.4,0.1-0.4,0.4
			c0,1.2,0,2.3,0,3.5c0,0.3,0.1,0.5,0.4,0.5c1.9,0,3.9,0,5.8,0c0.3,0,0.4-0.1,0.4-0.4c0-1.2,0-2.4,0-3.6c0-0.3-0.1-0.4-0.4-0.4
			c0,0-0.1,0-0.1,0c-0.4-0.1-1,0.2-1.2-0.1c-0.3-0.4-0.1-1-0.1-1.5c0-0.3,0.2-0.3,0.4-0.3c1.7,0,3.4,0,5.2,0c0.3,0,0.4,0.1,0.4,0.4
			c0,0,0,0,0,0.1c0,0.5,0.2,1-0.1,1.4c-0.2,0.4-0.9,0.1-1.3,0.1c-0.3,0-0.4,0.1-0.4,0.4c0,3.5,0,7.1,0,10.6c0,0.4,0.2,0.5,0.5,0.5
			c1.3,0,1.3,0,1.3,1.3c0,0.4-0.1,0.6-0.6,0.6c-1.6,0-3.2,0-4.8,0c-0.4,0-0.6-0.1-0.5-0.5c0-1.4,0-1.4,1.3-1.4
			c0.4,0,0.5-0.1,0.5-0.5c0-1.4,0-2.8,0-4.3c0-0.4-0.1-0.5-0.5-0.5c-1.9,0-3.8,0-5.7,0c-0.4,0-0.5,0.1-0.5,0.5c0,1.4,0,2.8,0,4.2
			c0,0.4,0.1,0.6,0.5,0.6c1.3,0,1.2,0,1.3,1.3c0,0.5-0.1,0.6-0.6,0.6c-1.6,0-3.1,0-4.7,0c-0.4,0-0.6-0.1-0.6-0.5
			c0.1-0.4-0.2-1,0.1-1.3c0.3-0.3,0.8-0.1,1.2-0.1c0.4,0,0.4-0.2,0.4-0.5C53.1,88,53.1,86.3,53.1,84.5z"/>
		<path class="st4" d="M153.5,88.2c0-1.1,0-2.3,0-3.4c0-1.2-0.7-1.7-1.8-1.5c-0.9,0.2-1.6,0.6-2.3,1.2c-0.2,0.1-0.2,0.3-0.2,0.6
			c0,1.6,0,3.3,0,4.9c0,0.4,0.1,0.5,0.5,0.4c0,0,0,0,0.1,0c1.5,0,1.5,0,1.4,1.5c0,0.2-0.1,0.3-0.3,0.3c-1.1,0-2.2,0-3.3,0
			c-0.4,0-0.3-0.3-0.3-0.5c0-2.1,0-4.3,0-6.4c0-0.4,0-0.9-0.2-1.3c-0.2-0.5-0.6-0.8-1.1-0.8c-1.2,0-2.1,0.7-3,1.3
			c-0.2,0.1-0.1,0.3-0.1,0.5c0,1.6,0,3.3,0,4.9c0,0.4,0.1,0.5,0.5,0.4c0.1,0,0.1,0,0.2,0c0.4,0,1-0.2,1.2,0.1c0.3,0.4,0.1,1,0.1,1.5
			c0,0.2-0.2,0.2-0.4,0.2c-1.7,0-3.4,0-5.2,0c-0.2,0-0.4-0.1-0.4-0.3c-0.1-1.5-0.1-1.5,1.4-1.5c0.5,0,0.6-0.1,0.6-0.6
			c0-1.9,0-3.9,0-5.8c0-0.4-0.1-0.5-0.5-0.5c-1.3,0-1.3,0-1.3-1.3c0-0.5,0.1-0.6,0.6-0.6c0.9,0,1.9,0,2.8,0c0.4,0,0.6,0.1,0.5,0.5
			c0,0.1,0,0.1,0,0.2c0,0.2-0.1,0.4,0.1,0.5c0.2,0.1,0.3-0.1,0.4-0.2c0.7-0.5,1.5-0.9,2.3-1c1.3-0.2,2.5,0,3.2,1.3
			c0.2,0.3,0.4,0.2,0.6,0c0.7-0.5,1.3-0.9,2.1-1.1c0.4-0.1,0.9-0.2,1.3-0.3c1.6-0.1,2.8,0.9,2.9,2.7c0.1,1.8,0,3.7,0.1,5.6
			c0,0.7,0,0.7,0.8,0.7c1.1,0,1.1,0,1.1,1.2c0,0.7,0,0.7-0.7,0.7c-0.9,0-1.8,0-2.7,0c-0.4,0-0.6-0.1-0.5-0.5
			C153.5,90.5,153.5,89.3,153.5,88.2C153.5,88.2,153.5,88.2,153.5,88.2z"/>
		<path class="st5" d="M233.6,84.5c0-1.7,0-3.5,0-5.2c0-0.4-0.1-0.5-0.5-0.5c-1.5,0-1.4,0-1.4-1.5c0-0.3,0.1-0.5,0.4-0.5
			c2.2,0,4.3,0,6.5,0.1c1.5,0,2.7,0.5,3.5,1.9c1,1.6,0.6,3.8-0.9,5c-0.3,0.2-0.3,0.3,0,0.5c1.7,0.8,2.4,2.6,2.1,4.5
			c-0.3,1.6-1.6,2.9-3.5,3.3c-0.6,0.1-1.2,0.2-1.8,0.2c-2,0-3.9,0-5.9,0c-0.4,0-0.6-0.1-0.5-0.5c0-1.4,0-1.4,1.4-1.4
			c0.4,0,0.5-0.2,0.5-0.6C233.6,88,233.6,86.2,233.6,84.5C233.6,84.5,233.6,84.5,233.6,84.5z M236,87.7c0,0.7,0,1.4,0,2.1
			c0,0.3,0.1,0.5,0.4,0.5c1,0,1.9,0,2.9-0.2c1-0.2,1.7-1,1.8-1.9c0.2-1.3-0.3-2.3-1.3-2.7c-1.1-0.5-2.2-0.4-3.3-0.4
			c-0.4,0-0.5,0.2-0.5,0.6C236,86.3,236,87,236,87.7z M236,81c0,0.6,0,1.2,0,1.8c0,0.3,0.1,0.4,0.4,0.4c0.7,0,1.5,0.1,2.2-0.1
			c1.1-0.2,1.7-0.9,1.8-2.1c0.1-1-0.5-1.8-1.5-2.1c-0.9-0.3-1.8-0.2-2.7-0.2c-0.3,0-0.3,0.2-0.3,0.4C236,79.8,236,80.4,236,81z"/>
		<path class="st5" d="M123.5,79.3c0,0.7,0,1.3,0,2c0,0.3-0.1,0.5-0.4,0.4c-0.1,0-0.1,0-0.2,0c-0.9,0.1-1.5-0.1-2-0.9
			c-1.7-2.4-4.8-2.9-7.2-1.3c-1.3,0.9-2,2.2-2.3,3.7c-0.3,1.9-0.1,3.7,1.2,5.2c2.4,2.9,6.9,2.5,8.7-0.8c0.2-0.4,0.4-0.9,0.6-1.3
			c0.1-0.2,0.1-0.3,0.4-0.1c0.5,0.3,1,0.6,1.5,0.8c0.2,0.1,0.3,0.2,0.2,0.4c-0.8,2.5-2.5,4.1-5,4.8c-2,0.5-4,0.5-5.8-0.4
			c-3-1.5-4.2-4.1-4.2-7.3c0-2.2,0.6-4.2,2.3-5.8c1.6-1.5,3.5-2,5.6-2c1.6,0,3,0.4,4.3,1.3c0.3,0.2,0.4,0.1,0.4-0.3
			c0-0.1,0-0.2,0-0.3c0-0.3,0.1-0.5,0.5-0.5c1.6,0,1.6,0,1.6,1.6C123.5,78.7,123.5,79,123.5,79.3z"/>
		<path class="st6" d="M193.1,76.8c1.9,0,3.8,0,5.7,0c0.4,0,0.6,0.1,0.6,0.5c0,1.6,0,3.3,0,4.9c0,0.4-0.1,0.5-0.5,0.5
			c-1.4,0-1.4,0-1.4-1.4c0-0.7,0-1.4,0-2.1c0-0.3-0.1-0.5-0.4-0.5c-0.8,0-1.6,0-2.4,0c-0.3,0-0.4,0.1-0.4,0.4c0,3.6,0,7.1,0,10.7
			c0,0.3,0.1,0.5,0.5,0.4c0.4,0,0.7,0,1.1,0c0.3,0,0.4,0.1,0.4,0.4c0.1,1.5,0.1,1.5-1.4,1.5c-1.5,0-2.9,0-4.4,0
			c-0.4,0-0.5-0.1-0.5-0.5c0-1.4,0-1.4,1.4-1.4c0.5,0,0.6-0.2,0.6-0.6c0-3.5,0-6.9,0-10.4c0-0.4-0.1-0.5-0.5-0.5c-0.7,0-1.4,0-2.1,0
			c-0.4,0-0.6,0.1-0.6,0.6c0,1,0,1.9,0,2.9c0,0.4-0.1,0.5-0.5,0.5c-1.4,0-1.4,0-1.4-1.4c0-1.3,0-2.6,0-3.9c0-0.5,0.1-0.6,0.6-0.6
			C189.3,76.8,191.2,76.8,193.1,76.8z"/>
		<path class="st7" d="M24.7,55c-0.3-0.1-0.2-0.3-0.2-0.5c0-1.2,0-2.5,0-3.7c0-0.5,0.2-0.6,0.6-0.5c6.1,0.9,10,4.4,12,10.1
			c1.2,3.5,0.8,6.9-0.7,10.3c-0.3,0.6-0.3,0.6-0.8,0.2c-0.7-0.6-1.5-1.3-2.2-1.9c0.2-0.1,0.3-0.2,0.4-0.4c0.9-2.3,1-4.6,0.4-7
			c-0.6-2.2-1.8-4-3.5-5.5c-1.5-1.3-3.4-2.1-5.4-2.5c-0.4-0.1-0.6,0-0.5,0.5C24.7,54.4,24.7,54.7,24.7,55z"/>
		<path class="st5" d="M202,84.5c0-1.7,0-3.5,0-5.2c0-0.4-0.1-0.6-0.6-0.6c-1.4,0-1.4,0-1.4-1.5c0-0.3,0.1-0.5,0.5-0.4
			c1,0,2.1,0,3.1,0c0.4,0,0.5,0.1,0.5,0.5c0,1.6,0,3.1,0,4.7c0,0.2-0.1,0.4,0.1,0.5c0.2,0.1,0.3-0.1,0.4-0.2c1.1-0.8,2.3-1.2,3.7-1
			c1.1,0.2,2,1,2.1,2.1c0.2,1.1,0.1,2.3,0.1,3.4c0,1,0,2,0,3c0,0.4,0.1,0.5,0.5,0.5c1.3,0,1.3,0,1.3,1.3c0,0.4-0.1,0.6-0.6,0.6
			c-1,0-1.9,0-2.9,0c-0.4,0-0.5-0.1-0.5-0.5c0-2.1,0-4.2,0-6.2c0-0.4,0-0.7-0.1-1.1c-0.1-0.9-0.7-1.3-1.6-1.2
			c-1,0.1-1.8,0.6-2.6,1.2c-0.2,0.1-0.2,0.3-0.2,0.5c0,1.7,0,3.4,0,5.1c0,0.3,0.1,0.5,0.4,0.4c0,0,0.1,0,0.1,0
			c0.4,0.1,1-0.2,1.2,0.1c0.2,0.4,0.1,1,0.1,1.5c0,0.2-0.2,0.3-0.3,0.3c-1.8,0-3.5,0-5.3,0c-0.2,0-0.3-0.1-0.3-0.3c0,0,0-0.1,0-0.1
			c-0.1-1.4-0.1-1.5,1.4-1.5c0.4,0,0.5-0.1,0.5-0.5C202,88,202,86.3,202,84.5z"/>
		<path class="st8" d="M32.2,71.1c-0.1,0.6-0.6,0.9-1,1.3c-1.3,1.3-2.8,2.2-4.6,2.7c-3.6,1-7,0.4-10-1.9c-2.1-1.6-3.4-3.7-3.9-6.2
			c-0.7-3.4,0-6.6,2.2-9.3c1.6-2,3.6-3.2,6-3.8c0.2-0.1,0.5-0.1,0.7-0.1c0.1,0.4,0.1,0.8,0,1.2c0,0-0.1,0.1-0.1,0.1c0,0,0,0,0,0
			c-0.1,0-0.2,0-0.3,0.1l0,0c0,0,0,0,0,0c-0.3,0-0.5,0-0.7,0.2c0,0,0,0,0,0c-0.2,0-0.4,0-0.5,0.2l0,0c0,0,0,0,0,0
			c-0.1,0-0.2,0-0.3,0.1c0,0,0,0,0,0c0,0-0.1,0.1-0.1,0.1c0,0,0,0,0,0s0,0,0,0c-0.1,0-0.2,0-0.3,0.1c0,0,0,0,0,0
			c0,0-0.1,0.1-0.1,0.1l0,0c0,0,0,0,0,0c-0.1,0-0.1,0.1-0.2,0.1c0,0,0,0,0,0c-0.1,0-0.1,0-0.2,0.1c0,0,0,0,0,0c-0.1,0-0.1,0-0.2,0.1
			c0,0,0,0,0,0c-0.1,0-0.1,0-0.1,0.1c0,0,0,0,0,0c0,0-0.1,0.1-0.1,0.1l0,0c0,0,0,0,0,0c-0.1,0-0.1,0-0.2,0.1c0,0-0.1,0.1-0.1,0.1
			c0,0-0.1,0.1-0.1,0.1c-1.1,1.1-2.1,2.2-2.7,3.7c-2.2,5.2,0.8,11.4,6.3,12.8c3.7,0.9,6.9-0.2,9.4-3.1c0.4-0.4,0.6-0.5,0.9,0
			c0,0,0.1,0.1,0.1,0.1c0,0,0,0,0,0c0,0.1,0.1,0.1,0.1,0.1c0,0,0,0,0,0c0,0.1,0.1,0.1,0.1,0.1c0,0,0,0,0,0c0,0.1,0.1,0.1,0.1,0.1
			C32.1,70.9,32.2,70.9,32.2,71.1z"/>
		<path class="st5" d="M96.8,87.4c-1.3,0-2.7,0-4,0c-0.4,0-0.5,0.1-0.4,0.5c0.7,2.9,3.7,3.3,5.7,2.2c0.4-0.2,0.8-0.5,1.1-0.9
			c0.2-0.2,0.3-0.3,0.6-0.2c0.4,0.2,0.8,0.4,1.2,0.5c0.4,0.1,0.3,0.3,0.1,0.6c-1.4,1.8-3.3,2.4-5.6,2.3c-1.7-0.1-3.1-0.7-4.2-1.9
			c-2-2.1-1.6-6.1,0.6-7.9c2.7-2.1,6-1.8,8.2,0.8c0.9,1.1,1.1,2.3,1.2,3.7c0,0.3-0.2,0.3-0.4,0.3C99.5,87.4,98.2,87.4,96.8,87.4z
			 M95.7,85.9c1,0,1.9,0,2.9,0c0.5,0,0.6-0.2,0.4-0.6c-0.5-1.7-2.7-2.9-4.4-2.3c-1.1,0.4-1.8,1.2-2.1,2.3c-0.1,0.4,0,0.5,0.4,0.5
			C93.8,85.9,94.8,85.9,95.7,85.9z"/>
		<path class="st5" d="M74.4,87.4c-1.3,0-2.6,0-3.9,0c-0.5,0-0.6,0.2-0.4,0.6c0.6,2.2,2.7,3.2,4.9,2.5c0.7-0.3,1.3-0.6,1.8-1.2
			c0.1-0.1,0.2-0.3,0.4-0.2c0.6,0.2,1.1,0.4,1.6,0.7c0.2,0.1,0,0.3-0.1,0.4c-0.9,1.2-2.2,2-3.6,2.3c-2.3,0.4-4.4,0-6.1-1.8
			c-2-2.1-1.7-6.1,0.5-7.9c2.6-2.2,6.1-1.8,8.2,0.8c0.9,1.1,1.1,2.3,1.2,3.7c0,0.3-0.2,0.3-0.4,0.3C77.1,87.4,75.7,87.4,74.4,87.4z
			 M73.3,85.9c0.9,0,1.9,0,2.8,0c0.6,0,0.6-0.1,0.4-0.6c-0.6-1.4-1.6-2.3-3.2-2.3c-1.4-0.1-2.8,0.9-3.2,2.3
			c-0.2,0.6-0.1,0.7,0.5,0.7C71.5,85.9,72.4,85.9,73.3,85.9z"/>
		<path class="st5" d="M165.3,87.4c-1.3,0-2.7,0-4,0c-0.4,0-0.5,0.1-0.4,0.5c0.8,2.9,3.7,3.3,5.7,2.2c0.4-0.2,0.8-0.5,1.1-0.9
			c0.1-0.1,0.2-0.3,0.4-0.2c0.5,0.2,1,0.4,1.5,0.7c0.2,0.1,0,0.2,0,0.3c-1,1.3-2.3,2.1-3.9,2.3c-2.2,0.4-4.3-0.1-5.9-1.8
			c-2-2.2-1.7-6.1,0.6-8c2.6-2.1,6.2-1.6,8.1,0.8c0.9,1.1,1.1,2.4,1.3,3.7c0,0.3-0.2,0.3-0.4,0.3C168,87.4,166.7,87.4,165.3,87.4z
			 M164.3,85.9c1,0,1.9,0,2.9,0c0.5,0,0.5-0.2,0.4-0.5c-0.3-0.7-0.7-1.3-1.3-1.7c-1.8-1.4-4.5-0.6-5.2,1.6c-0.2,0.6-0.1,0.7,0.5,0.7
			C162.4,85.9,163.4,85.9,164.3,85.9z"/>
		<path class="st5" d="M220.3,87.4c-1.3,0-2.7,0-4,0c-0.4,0-0.5,0.1-0.4,0.5c0.8,3,3.8,3.4,5.8,2.2c0.4-0.2,0.8-0.5,1-0.9
			c0.2-0.3,0.4-0.3,0.7-0.2c0.4,0.2,0.7,0.3,1.1,0.5c0.3,0.1,0.3,0.2,0.1,0.5c-1.4,1.8-3.3,2.5-5.5,2.4c-1.7-0.1-3.2-0.7-4.3-1.9
			c-2-2.2-1.6-6.1,0.7-8c2.6-2.1,6.2-1.5,8.1,0.9c0.8,1.1,1.1,2.3,1.2,3.6c0,0.4-0.2,0.3-0.5,0.3C222.9,87.4,221.6,87.4,220.3,87.4
			C220.3,87.4,220.3,87.4,220.3,87.4z M219.2,85.9c1,0,1.9,0,2.9,0c0.5,0,0.5-0.2,0.4-0.6c-0.3-0.8-0.8-1.4-1.5-1.9
			c-1.8-1.2-4.3-0.3-4.9,1.8c-0.2,0.6-0.1,0.7,0.4,0.7C217.3,85.9,218.2,85.9,219.2,85.9z"/>
		<path class="st5" d="M255.1,85.9c0,1.3,0,2.6,0,3.9c0,0.4,0.1,0.5,0.5,0.5c0,0,0,0,0.1,0c1.5,0,1.5,0,1.4,1.5
			c0,0.2-0.1,0.3-0.3,0.3c-1.1,0-2.2,0-3.3,0c-0.4,0-0.3-0.3-0.3-0.5c0-0.2,0.1-0.4-0.1-0.5c-0.2-0.1-0.3,0.1-0.4,0.2
			c-0.8,0.5-1.6,0.9-2.6,1c-1.9,0.2-3.1-0.8-3.3-2.7c-0.1-0.9,0-1.9-0.1-2.8c0-1,0-2,0-3c0-0.4-0.1-0.5-0.5-0.5c-1,0-1,0-1-1.1
			c0-0.9-0.1-0.8,0.8-0.8c0.8,0,1.5,0,2.3,0c0.4,0,0.5,0.1,0.5,0.5c0,2.2,0,4.4,0,6.6c0,0.3,0,0.5,0,0.8c0.1,0.8,0.6,1.2,1.4,1.2
			c1.1-0.1,2-0.6,2.8-1.3c0.2-0.1,0.2-0.3,0.2-0.5c0-1.6,0-3.3,0-4.9c0-0.4-0.1-0.5-0.5-0.5c0,0,0,0-0.1,0c-1.5,0-1.5,0-1.4-1.5
			c0-0.3,0.1-0.4,0.4-0.4c1.1,0,2.2,0,3.3,0c0.3,0,0.3,0.2,0.3,0.4C255.1,83.3,255.1,84.6,255.1,85.9z"/>
		<path class="st5" d="M131.5,92.5c-3.2,0-5.6-2.4-5.6-5.7c0-3.2,2.4-5.6,5.6-5.6c3.2,0,5.6,2.4,5.6,5.6
			C137.1,90.1,134.7,92.5,131.5,92.5z M128.1,87.1c0,1.1,0.5,2.1,1.6,2.8c1.1,0.7,2.3,0.7,3.4,0.1c1.3-0.7,1.8-1.9,1.8-3.3
			c0-2.2-1.8-3.7-3.9-3.5C129.3,83.5,128.1,85,128.1,87.1z"/>
		<path class="st9" d="M171.6,90.3c0-0.5,0-1,0-1.5c0-0.3,0.1-0.4,0.4-0.4c0.2,0,0.4,0,0.6,0c0.5,0,0.9,0,1.1,0.7
			c0.1,0.8,0.8,1.1,1.6,1.3c0.8,0.2,1.5,0.1,2.3-0.2c0.5-0.2,0.8-0.6,0.8-1.1c0-0.5-0.4-0.9-0.9-1c-0.9-0.2-1.8-0.4-2.7-0.6
			c-0.6-0.1-1.2-0.3-1.7-0.7c-1.1-0.7-1.5-1.8-1.3-3.1c0.2-1.3,1.1-2,2.3-2.3c1.1-0.3,2.2-0.3,3.3,0.1c0.3,0.1,0.5,0.2,0.8-0.1
			c0.4-0.3,1.1-0.1,1.6-0.1c0.1,0,0.1,0.2,0.1,0.3c0,1,0,1.9,0,2.9c0,0.2-0.1,0.3-0.3,0.3c-0.3,0-0.5,0-0.8,0
			c-0.4,0-0.8,0.1-0.8-0.6c0-0.4-0.4-0.6-0.7-0.9c-0.8-0.6-2.3-0.7-3.1-0.1c-0.4,0.3-0.6,0.6-0.5,1c0.1,0.5,0.3,0.7,0.7,0.8
			c1,0.3,2,0.4,3,0.6c0.7,0.2,1.4,0.3,2,0.8c1.8,1.6,1.3,4.3-0.9,5.2c-1.5,0.6-3,0.6-4.4,0c-0.2-0.1-0.4-0.3-0.5,0.1
			c-0.1,0.2-0.3,0.2-0.5,0.2c-1.4,0-1.4,0-1.4-1.4C171.6,90.7,171.6,90.5,171.6,90.3z"/>
		<path class="st9" d="M258.1,90.4c0-0.5,0-0.9,0-1.4c0-0.3,0.1-0.5,0.4-0.5c0.1,0,0.3,0,0.4,0c0.6-0.1,1,0,1.2,0.8
			c0.1,0.7,0.9,1.1,1.5,1.2c0.7,0.2,1.5,0.1,2.2-0.2c0.5-0.2,0.9-0.6,0.8-1.1c0-0.5-0.4-0.9-0.9-1c-0.9-0.2-1.7-0.4-2.6-0.6
			c-0.6-0.1-1.2-0.3-1.7-0.7c-1.1-0.7-1.5-1.8-1.3-3c0.2-1.3,1.1-2,2.2-2.4c1.1-0.4,2.2-0.3,3.3,0.1c0.3,0.1,0.5,0.2,0.9-0.1
			c0.4-0.3,1.1-0.1,1.6-0.1c0.2,0,0.2,0.2,0.2,0.4c0,0.9,0,1.9,0,2.8c0,0.3-0.1,0.4-0.4,0.4c-0.3,0-0.6,0-1,0c-0.4,0-0.7,0-0.6-0.5
			c0-0.3-0.2-0.4-0.4-0.6c-0.9-1-2.5-1.1-3.5-0.4c-0.4,0.3-0.5,0.6-0.4,1c0.1,0.4,0.3,0.7,0.7,0.8c1,0.3,2,0.4,3,0.6
			c1.2,0.2,2.2,0.7,2.7,1.8c0.9,1.8-0.2,4-2.3,4.4c-1.3,0.3-2.6,0.3-3.9-0.3c-0.1-0.1-0.3-0.1-0.3,0c-0.5,0.8-1.2,0.2-1.8,0.3
			c-0.2,0-0.2-0.2-0.2-0.3C258.1,91.3,258.1,90.9,258.1,90.4z"/>
		<path class="st9" d="M84.3,83.4c0.3-0.5,0.7-1.1,1.3-1.5c1-0.7,2-0.6,3.1-0.7c0.2,0,0.2,0.1,0.2,0.3c0,0,0,0.1,0,0.1
			c0,0.5,0.2,1.1-0.1,1.5c-0.3,0.5-0.9,0.1-1.4,0.3c-0.3,0.1-0.7,0.1-1,0.2c-1.2,0.3-1.6,1.3-1.8,2.5c-0.1,1.3-0.1,2.5-0.1,3.8
			c0,0.3,0.1,0.4,0.4,0.4c0.5,0,1,0,1.6,0c0.3,0,0.4,0.1,0.4,0.4c0.1,1.5,0.1,1.5-1.4,1.5c-1.6,0-3.2,0-4.8,0
			c-0.3,0-0.5-0.1-0.5-0.5c0-1.4,0-1.4,1.4-1.4c0.8,0,0.8,0,0.8-0.8c0-1.9,0-3.7,0-5.6c0-0.4-0.1-0.6-0.5-0.5c-0.4,0-0.9,0-1.3,0
			c-0.3,0-0.4-0.1-0.4-0.4c0,0,0-0.1,0-0.1c0-1.4,0-1.4,1.4-1.4c0.7,0,1.4,0,2.1,0c0.3,0,0.5,0.1,0.4,0.5c0,0.5,0,1,0,1.4
			C84.2,83.4,84.2,83.4,84.3,83.4z"/>
		<path class="st6" d="M18.9,65.5c0-1,0-2.1,0-3.1c0-0.1,0-0.3,0-0.4c0-0.1-0.2-0.2-0.3-0.1c-0.2,0.1-0.1,0.2,0,0.3
			c0.2,0.5,0.1,1,0.1,1.4c0,0.2-0.1,0.3-0.4,0.3c-0.2,0-0.4-0.1-0.4-0.3c0-0.6-0.1-1.2,0.3-1.8c0.1-0.1,0.1-0.2,0.2-0.2
			c0.6,0.1,0.5-0.3,0.5-0.7c0-0.4,0-0.8,0-1.2c0-0.5,0.3-0.9,0.8-0.9c1.8-0.2,3.6-0.3,5.4-0.2c0.7,0,1.3,0.1,2,0.2
			c0.7,0.1,1,0.4,1,1c0,0.3,0,0.6,0,1c0,0.4-0.1,0.7,0.5,0.8c0.4,0,0.5,0.5,0.5,0.9c0.1,0.3,0,0.7,0,1c0,0.3-0.1,0.4-0.4,0.4
			c-0.3,0-0.4-0.1-0.4-0.4c0-0.5-0.1-0.9,0.1-1.4c0-0.1,0.1-0.2,0-0.3c-0.2,0-0.3,0-0.3,0.2c0,0.2,0,0.4,0,0.7c0,1.9,0,3.9,0,5.8
			c0,1.1-0.7,1.3-1.6,1.2c-0.1,0-0.2-0.1-0.2-0.2c0-0.3-0.3-0.3-0.5-0.3c-1.5,0-3.1,0-4.6,0c-0.2,0-0.4,0-0.5,0.2
			c-0.2,0.3-1.1,0.2-1.4,0c-0.4-0.4-0.4-0.8-0.4-1.3C19,67.4,18.9,66.5,18.9,65.5C18.9,65.5,18.9,65.5,18.9,65.5z M24.8,68.9
			L24.8,68.9c0.2-0.1,0.3-0.2,0.1-0.4l0,0c-0.9-0.2-1.7-0.1-2.6,0c0,0-0.1,0.1-0.1,0.1c0,0.1-0.1,0.2,0.1,0.3
			c0.7,0.2,1.4,0.1,2.1,0.1c0.1,0,0.2,0,0.3,0C24.8,69,24.8,69,24.8,68.9z M20.8,59.3c-0.2,0.3-0.2,0.5,0,0.8c0,0,0,0,0,0
			c0.1,0.1,0.2,0.1,0.3,0.1c1.6,0,3.2,0,4.8,0c0.2,0,0.3,0,0.4-0.2l0,0c0.1,0,0.1-0.1,0.1-0.1c0-0.1,0-0.1,0-0.2
			c0.1-0.1,0.1-0.3-0.1-0.4c0,0,0,0-0.1,0c-0.1-0.1-0.2-0.1-0.4-0.1c-1.5,0-3.1,0-4.6,0C21.1,59.2,20.9,59.2,20.8,59.3L20.8,59.3z
			 M23.5,60.9c-1.1,0-2.3,0-3.4,0c-0.5,0-0.7,0.2-0.7,0.7c0,1,0,2.1,0,3.1c0,1,0.2,1.3,1.2,1.6c1.4,0.4,2.8,0.4,4.3,0.3
			c0.7-0.1,1.4-0.2,2.1-0.5c0.4-0.2,0.7-0.5,0.7-1.1c0-1.1,0-2.2,0-3.3c0-0.7-0.1-0.8-0.8-0.8C25.7,60.9,24.6,60.9,23.5,60.9z
			 M20.7,68.1c0.3,0,0.6,0,0.8,0c0.3,0,0.5-0.2,0.5-0.5c0-0.2-0.2-0.4-0.4-0.5c-0.6,0-1.1,0-1.7,0c-0.2,0-0.4,0.2-0.4,0.5
			c0,0.3,0.2,0.4,0.5,0.5C20.2,68.1,20.5,68.1,20.7,68.1z M26.3,68.1c0.2,0,0.5,0,0.7,0c0.3,0,0.5-0.2,0.5-0.4
			c0-0.3-0.2-0.5-0.5-0.5c-0.5,0-1,0-1.6,0c-0.3,0-0.5,0.2-0.5,0.5c0,0.3,0.2,0.4,0.5,0.5C25.8,68.1,26.1,68.1,26.3,68.1z"/>
		<path class="st8" d="M24.7,55c0-0.3,0-0.6,0-0.9c0-0.4,0.2-0.5,0.5-0.5c2,0.3,3.8,1.1,5.4,2.5c1.7,1.5,2.9,3.3,3.5,5.5
			c0.6,2.3,0.5,4.7-0.4,7c-0.1,0.2-0.2,0.3-0.4,0.4c0,0,0,0,0,0c0,0-0.1-0.1-0.1-0.1c0,0,0,0,0,0c0,0-0.1-0.1-0.1-0.1c0,0,0,0,0,0
			c0-0.1-0.1-0.1-0.1-0.1c0,0,0,0,0,0c0-0.1-0.1-0.1-0.2-0.1c-0.8-0.5-0.8-0.5-0.5-1.4c1.1-3.9-0.2-7.8-3.5-10.3
			c-0.1-0.1-0.1-0.1-0.2-0.2c0,0-0.1-0.1-0.1-0.1c0,0,0,0,0,0c0-0.1-0.1-0.1-0.2-0.1l0,0c0,0,0,0,0,0c0,0-0.1-0.1-0.1-0.1
			c0,0,0,0,0,0c0-0.1-0.1-0.1-0.2-0.1c0,0,0,0,0,0c0-0.1-0.1-0.1-0.2-0.1c0,0,0,0,0,0c0-0.1-0.1-0.1-0.2-0.1c0,0,0,0,0,0
			c0-0.1-0.1-0.1-0.2-0.1c0,0,0,0,0,0c0-0.1-0.1-0.1-0.2-0.1c-0.1,0-0.1,0-0.2,0c-0.1-0.2-0.3-0.2-0.5-0.2l0,0c0,0,0,0,0,0
			c-0.1-0.3-0.4-0.2-0.6-0.2c-0.1,0-0.1,0-0.2,0c0-0.1-0.1-0.1-0.1,0c-0.1,0-0.3-0.1-0.4-0.1C24.9,55,24.8,55,24.7,55
			C24.7,55,24.7,55,24.7,55z"/>
		<path class="st10" d="M23.2,88.9c0.2,0.3,0.4,0.7,0.8,0.1c1,0,2,0,2.9,0.2c0.3,0.1,0.8,0.1,0.8,0.4c0,0.4-0.5,0.4-0.8,0.5
			c-2.2,0.4-4.5,0.4-6.7,0c-0.1,0-0.1,0-0.2,0c-0.2-0.1-0.4-0.1-0.5-0.3c0-0.3,0.3-0.4,0.5-0.4c0.8-0.2,1.6-0.4,2.5-0.3
			C22.7,89,23,89.1,23.2,88.9z"/>
		<path class="st1" d="M20.4,55.5c0.2-0.3,0.5-0.3,0.7-0.2C20.9,55.4,20.7,55.5,20.4,55.5z"/>
		<path class="st7" d="M25.8,55.3c0.2,0,0.5-0.1,0.6,0.2C26.1,55.5,25.9,55.4,25.8,55.3z"/>
		<path class="st1" d="M19.9,55.7c0.1-0.2,0.3-0.2,0.5-0.2C20.2,55.6,20.1,55.7,19.9,55.7z"/>
		<path class="st7" d="M26.4,55.5c0.2,0,0.4,0,0.5,0.2C26.7,55.7,26.6,55.6,26.4,55.5z"/>
		<path class="st7" d="M24.7,55c0.1,0,0.3,0,0.4,0.1C24.9,55.1,24.8,55.2,24.7,55z"/>
		<path class="st1" d="M21.2,55.2c0.1-0.1,0.2-0.1,0.3-0.1C21.4,55.3,21.3,55.3,21.2,55.2z"/>
		<path class="st7" d="M27.5,55.9c0.1,0,0.2,0,0.2,0.1C27.6,56,27.5,56,27.5,55.9z"/>
		<path class="st1" d="M19.1,56c0-0.1,0.1-0.1,0.3-0.1C19.3,56,19.2,56.1,19.1,56z"/>
		<path class="st1" d="M19.5,55.8c0-0.1,0.2-0.1,0.3-0.1C19.7,55.8,19.6,55.8,19.5,55.8z"/>
		<path class="st7" d="M27.3,55.8c0.1,0,0.1,0,0.2,0.1C27.4,55.9,27.4,55.9,27.3,55.8z"/>
		<path class="st1" d="M19.4,55.9c0,0,0.1-0.1,0.1-0.1C19.5,55.9,19.5,55.9,19.4,55.9z"/>
		<path class="st1" d="M19,56.1c0,0,0.1-0.1,0.1-0.1C19.1,56.1,19,56.1,19,56.1z"/>
		<path class="st7" d="M27.8,56c0.1,0,0.1,0,0.2,0.1C27.9,56.2,27.8,56.1,27.8,56z"/>
		<path class="st1" d="M18.7,56.3c0.1,0,0.1-0.1,0.2-0.1C18.8,56.2,18.8,56.2,18.7,56.3z"/>
		<path class="st7" d="M28,56.2c0.1,0,0.1,0,0.2,0.1C28.1,56.2,28,56.2,28,56.2z"/>
		<path class="st7" d="M27.1,55.7c0.1,0,0.1,0,0.2,0.1C27.2,55.8,27.2,55.7,27.1,55.7z"/>
		<path class="st1" d="M18.5,56.4c0-0.1,0.1-0.1,0.2-0.1C18.7,56.3,18.6,56.4,18.5,56.4z"/>
		<path class="st7" d="M28.1,56.3c0,0,0.1,0.1,0.1,0.1C28.2,56.4,28.2,56.3,28.1,56.3z"/>
		<path class="st1" d="M18.3,56.5c0-0.1,0.1-0.1,0.2-0.1C18.4,56.4,18.4,56.5,18.3,56.5z"/>
		<path class="st1" d="M21.5,55.1c0,0,0.1-0.1,0.1-0.1C21.7,55.1,21.6,55.1,21.5,55.1z"/>
		<path class="st7" d="M32.8,68.5c0.1,0,0.1,0,0.2,0.1C32.9,68.6,32.9,68.5,32.8,68.5z"/>
		<path class="st7" d="M33,68.6c0.1,0,0.1,0,0.1,0.1C33,68.7,33,68.7,33,68.6z"/>
		<path class="st7" d="M33.1,68.7c0,0,0.1,0.1,0.1,0.1C33.2,68.8,33.1,68.8,33.1,68.7z"/>
		<path class="st7" d="M33.2,68.8c0,0,0.1,0.1,0.1,0.1C33.3,68.9,33.2,68.9,33.2,68.8z"/>
		<path class="st1" d="M17.6,57c0,0,0.1-0.1,0.1-0.1C17.7,57,17.7,57,17.6,57z"/>
		<path class="st1" d="M31.6,70.5c0,0-0.1-0.1-0.1-0.1C31.5,70.4,31.6,70.4,31.6,70.5z"/>
		<path class="st1" d="M31.7,70.6c-0.1,0-0.1,0-0.1-0.1C31.6,70.5,31.6,70.6,31.7,70.6z"/>
		<path class="st1" d="M31.8,70.7c-0.1,0-0.1,0-0.1-0.1C31.7,70.6,31.8,70.6,31.8,70.7z"/>
		<path class="st1" d="M31.9,70.8c-0.1,0-0.1,0-0.1-0.1C31.8,70.7,31.9,70.8,31.9,70.8z"/>
		<path class="st1" d="M17.9,56.8c0-0.1,0.1-0.1,0.2-0.1C18,56.8,17.9,56.8,17.9,56.8z"/>
		<path class="st7" d="M25.5,55.2c0.1-0.1,0.1,0,0.1,0C25.6,55.2,25.5,55.2,25.5,55.2z"/>
		<path class="st1" d="M18.1,56.7c0,0,0.1-0.1,0.1-0.1C18.2,56.6,18.1,56.7,18.1,56.7z"/>
		<path class="st7" d="M28.5,56.5c0,0,0.1,0.1,0.1,0.1C28.6,56.6,28.5,56.6,28.5,56.5z"/>
		<path class="st1" d="M18.2,56.6c0-0.1,0.1-0.1,0.1-0.1C18.3,56.6,18.3,56.6,18.2,56.6z"/>
		<path class="st7" d="M28.3,56.4c0.1,0,0.1,0,0.2,0.1C28.4,56.5,28.4,56.4,28.3,56.4z"/>
		<path class="st11" d="M236,87.7c0-0.7,0-1.3,0-2c0-0.4,0.1-0.6,0.5-0.6c1.1,0,2.3-0.1,3.3,0.4c1,0.4,1.5,1.4,1.3,2.7
			c-0.1,1-0.9,1.7-1.8,1.9c-0.9,0.2-1.9,0.2-2.9,0.2c-0.4,0-0.4-0.2-0.4-0.5C236,89.1,236,88.4,236,87.7z"/>
		<path class="st11" d="M236,81c0-0.6,0-1.2,0-1.8c0-0.2,0-0.4,0.3-0.4c0.9,0,1.8-0.1,2.7,0.2c1,0.3,1.6,1.1,1.5,2.1
			c-0.1,1.2-0.7,1.9-1.8,2.1c-0.7,0.1-1.5,0.1-2.2,0.1c-0.3,0-0.4-0.2-0.4-0.4C236,82.2,236,81.6,236,81z"/>
		<path class="st12" d="M95.7,85.9c-0.9,0-1.9,0-2.8,0c-0.4,0-0.5-0.1-0.4-0.5c0.3-1.2,1-1.9,2.1-2.3c1.7-0.6,3.8,0.5,4.4,2.3
			c0.1,0.4,0,0.6-0.4,0.6C97.6,85.9,96.7,85.9,95.7,85.9z"/>
		<path class="st12" d="M73.3,85.9c-0.9,0-1.8,0-2.7,0c-0.6,0-0.7-0.1-0.5-0.7c0.4-1.4,1.8-2.4,3.2-2.3c1.6,0.1,2.6,1,3.2,2.3
			c0.2,0.5,0.1,0.6-0.4,0.6C75.2,85.9,74.2,85.9,73.3,85.9z"/>
		<path class="st12" d="M164.3,85.9c-0.9,0-1.8,0-2.7,0c-0.6,0-0.7-0.1-0.5-0.7c0.7-2.2,3.4-3,5.2-1.6c0.6,0.5,1,1,1.3,1.7
			c0.1,0.4,0.1,0.6-0.4,0.5C166.2,85.9,165.2,85.9,164.3,85.9z"/>
		<path class="st12" d="M219.2,85.9c-0.9,0-1.8,0-2.7,0c-0.6,0-0.6-0.1-0.4-0.7c0.6-2.1,3.1-3,4.9-1.8c0.7,0.5,1.2,1.1,1.5,1.9
			c0.1,0.4,0.1,0.6-0.4,0.6C221.1,85.9,220.1,85.9,219.2,85.9z"/>
		<path class="st13" d="M128.1,87.1c0-2.1,1.2-3.6,2.9-3.8c2.1-0.3,3.9,1.3,3.9,3.5c0,1.4-0.5,2.6-1.8,3.3c-1.1,0.6-2.3,0.6-3.4-0.1
			C128.6,89.2,128.1,88.2,128.1,87.1z"/>
		<path class="st12" d="M23.5,60.9c1.1,0,2.2,0,3.3,0c0.7,0,0.8,0.1,0.8,0.8c0,1.1,0,2.2,0,3.3c0,0.5-0.2,0.8-0.7,1.1
			c-0.7,0.3-1.4,0.5-2.1,0.5c-1.4,0.1-2.9,0.1-4.3-0.3c-0.9-0.3-1.2-0.6-1.2-1.6c0-1,0-2.1,0-3.1c0-0.5,0.2-0.7,0.7-0.7
			C21.3,60.9,22.4,60.9,23.5,60.9z"/>
		<path class="st13" d="M26.3,59.7c0,0.1,0,0.1,0,0.2c0,0,0,0.1-0.1,0.1c0,0,0,0,0,0c-0.9,0-1.9,0-2.8,0c-0.9,0-1.7-0.1-2.6,0.1
			c0,0,0,0,0,0c0.1-0.3,0.1-0.5,0-0.8c0,0,0,0,0,0c1.2,0.1,2.5,0,3.7,0.1c0.5,0,1.1,0.1,1.6-0.1c0,0,0,0,0.1,0
			C26.2,59.5,26.1,59.6,26.3,59.7z"/>
		<path class="st14" d="M20.7,68.1c-0.3,0-0.5,0-0.8,0c-0.3,0-0.5-0.2-0.5-0.5c0-0.2,0.2-0.4,0.4-0.5c0.6,0,1.2,0,1.7,0
			c0.2,0,0.4,0.2,0.4,0.5c0,0.3-0.2,0.4-0.5,0.5C21.3,68.1,21,68.1,20.7,68.1z"/>
		<path class="st14" d="M26.3,68.1c-0.2,0-0.5,0-0.7,0c-0.3,0-0.5-0.1-0.5-0.5c0-0.3,0.2-0.5,0.5-0.5c0.5,0,1,0,1.6,0
			c0.3,0,0.5,0.2,0.5,0.5c0,0.3-0.2,0.4-0.5,0.4C26.8,68.1,26.5,68.1,26.3,68.1z"/>
		<path class="st15" d="M20.8,60.1c0.9-0.1,1.7,0,2.6-0.1c0.9,0,1.9,0,2.8,0c-0.1,0.2-0.2,0.2-0.4,0.2c-1.6,0-3.2,0-4.8,0
			C21,60.3,20.9,60.3,20.8,60.1z"/>
		<path class="st15" d="M26.2,59.3c-0.5,0.2-1.1,0.1-1.6,0.1c-1.2,0-2.5,0.1-3.7-0.1c0.1-0.1,0.3-0.1,0.4-0.1c1.5,0,3.1,0,4.6,0
			C26,59.2,26.1,59.2,26.2,59.3z"/>
		<path class="st11" d="M22.2,68.9c-0.2-0.1-0.1-0.2-0.1-0.3c0.9-0.1,1.8,0.1,2.7-0.1c0,0,0,0,0,0c0,0.1,0,0.3-0.1,0.4l0,0
			c0,0-0.1,0-0.1,0.1c-0.1,0-0.2,0-0.3,0C23.7,68.8,22.9,69,22.2,68.9z"/>
		<path class="st15" d="M24.8,68.5c-0.9,0.1-1.8,0-2.7,0.1c0,0,0.1-0.1,0.1-0.1C23.1,68.4,24,68.3,24.8,68.5z"/>
		<path class="st15" d="M22.2,68.9c0.7,0,1.4-0.1,2.1,0.1C23.6,69,22.9,69.1,22.2,68.9z"/>
		<path class="st15" d="M20.8,59.3c0.1,0.3,0.1,0.5,0,0.8C20.6,59.9,20.6,59.6,20.8,59.3z"/>
		<path class="st15" d="M26.3,59.7c-0.2-0.1-0.2-0.2-0.1-0.4C26.4,59.5,26.4,59.6,26.3,59.7z"/>
		<path class="st15" d="M24.8,68.9c0-0.1,0-0.3,0.1-0.4C25.1,68.7,25,68.8,24.8,68.9z"/>
		<path class="st15" d="M26.3,60.1c0,0,0-0.1,0.1-0.1C26.4,60,26.3,60,26.3,60.1z"/>
		<path class="st15" d="M24.7,69c0,0,0.1,0,0.1-0.1C24.8,69,24.8,69,24.7,69z"/>
	</g>
</g>
</svg>
