<?xml version="1.0" encoding="utf-8"?>
<!-- Generator: Adobe Illustrator 21.0.2, SVG Export Plug-In . SVG Version: 6.00 Build 0)  -->
<svg version="1.1" id="Capa_1" xmlns="http://www.w3.org/2000/svg" xmlns:xlink="http://www.w3.org/1999/xlink" x="0px" y="0px"
	 viewBox="0 0 283.5 141.7" style="enable-background:new 0 0 283.5 141.7;" xml:space="preserve">
<style type="text/css">
	.st0{fill:#4FA390;}
	.st1{fill:#505050;}
	.st2{fill:#474645;}
	.st3{fill:#3C8D77;}
	.st4{fill:#C5DEDA;}
</style>
<path class="st0" d="M17.7,86.3c-2.3-4.1-4.9-8.1-7.6-12c-0.5-0.8-1.2-1.4-1.8-2.1c-1.9-1.9-3.4-4-4.5-6.4c-0.5-1.2-0.7-2.4-0.9-3.7
	c-0.3-1.6-0.2-3.3,0-4.9c0.2-1.6,0.8-3.2,1.6-4.7c0.8-1.4,1.8-2.8,3-3.9c2.2-2.1,4.7-3.4,7.7-4.1c0.7-0.1,0.8-0.1,0.8,0.6
	c0,1,0,1.9,0,2.9c-0.4,0-0.8,0-1.2,0.1C9.3,49.8,5.9,54.6,6,60c0,2.4,0.8,4.7,2.3,6.7c2.2,3,5.2,4.7,8.9,5c3,0.2,5.8-0.7,8.3-2.6
	c0.8-0.6,1.6-1.2,2-2.2c0.9,0.7,1.7,1.5,2.6,2.2c-0.5,0.8-1.1,1.5-1.8,2.1c-2,1.7-3.3,3.9-4.7,6.1c-1.6,2.6-3.1,5.3-4.7,8
	c-0.2,0.3-0.3,0.6-0.4,1C18.1,86.6,17.9,86.5,17.7,86.3z"/>
<path class="st1" d="M36.9,71.3c-0.8-0.5-1.3-1.5-2.2-1.9c-0.5-0.3-0.7-0.7-0.3-1.4c0.6-1.2,0.9-2.6,1.3-3.9
	c0.9-2.8,1.1-5.6,0.7-8.5c-0.3-2.1-1.3-4.1-2.5-5.9c-0.7-1-1.5-2-2.5-2.8c-1-0.8-2-1.6-3.2-2.2c-2-1.1-4.1-2.1-6.5-2.4
	c-0.4-0.1-0.8-0.3-1.2-0.4c-0.4-0.1-1,0-1.3-0.2c-0.4-0.4-0.1-1-0.2-1.5c0-0.3,0-0.6,0-0.9c0-1.2,0-1.2,1.1-1.1
	c4.1,0.5,8.1,1.7,11.6,4c2.2,1.5,3.9,3.3,5.2,5.6c3.2,5.4,3.8,11.1,2.3,17.1c-0.5,2-1.1,3.9-2,5.8C37.2,71,37.2,71.2,36.9,71.3z"/>
<path class="st2" d="M52.9,79.9c2.1,0,4.2,0,6.3,0.1c0.5,0,0.7-0.2,0.7-0.6c0-1.2,0-2.3,0-3.5c0-0.5-0.2-0.7-0.6-0.7
	c-0.2,0-0.5,0-0.7,0c-0.4,0-0.5-0.2-0.6-0.6c-0.1-1.5-0.1-1.5,1.4-1.5c1.4,0,2.8,0,4.1,0c0.6,0,0.9,0.2,0.8,0.9
	c-0.1,1.1,0.2,1.3-1.2,1.2c-0.7,0-0.8,0.2-0.8,0.8c0,3.6,0,7.2,0,10.8c0,0.6,0.2,0.9,0.8,0.8c0.4,0,0.8-0.1,1,0.2
	c0.2,0.5,0.1,1,0.1,1.5c0,0.3-0.3,0.3-0.5,0.3c-1.8,0-3.6,0-5.3,0c-0.3,0-0.5-0.1-0.5-0.4c0-0.3,0-0.6,0-1c0-0.5,0.2-0.6,0.6-0.7
	c1.3-0.2,1.3-0.2,1.3-1.5c0-1.1,0-2.3,0-3.4c0-0.6-0.2-0.8-0.8-0.8c-1.9,0-3.9,0-5.8,0c-0.5,0-0.7,0.2-0.7,0.7c0,1.5,0,3.1,0,4.6
	c0,0.2,0,0.3,0.2,0.3c0.2,0,0.5,0,0.7,0.1c1,0.1,1,0.1,1,1c0,1.1,0,1.1-1.1,1.1c-1.5,0-2.9,0-4.4,0c-0.6,0-0.9-0.1-0.8-0.8
	c0-0.2,0-0.5,0-0.7c0-0.4,0.2-0.6,0.6-0.6c0.2,0,0.4,0,0.6,0c0.5,0,0.7-0.2,0.7-0.7c0-0.9,0-1.8,0-2.7c0-2.7,0-5.4,0-8.1
	c0-0.9,0-0.9-0.9-1c-0.3,0-0.8,0.2-0.9-0.2c-0.2-0.5-0.1-1.1,0-1.7c0-0.2,0.2-0.2,0.4-0.2c1.8,0,3.6,0,5.3,0c0.3,0,0.5,0.2,0.5,0.5
	c0,0.2,0,0.5,0,0.7c0.1,0.6-0.2,0.9-0.8,0.8c-0.2,0-0.3,0-0.5,0c-0.5-0.1-0.7,0.2-0.7,0.7c0,1.2,0,2.4,0,3.6
	C52.6,79.7,52.6,79.9,52.9,79.9z"/>
<path class="st2" d="M253.5,80.8c0.1,0.4,0.5,0.4,0.8,0.6c2.4,1.6,2.6,5.3,0,7.1c-1.1,0.8-2.3,1-3.6,1.1c-2.1,0.1-4.3,0-6.4,0.1
	c-0.6,0-0.8-0.2-0.8-0.8c0-0.2,0-0.5,0-0.7c0-0.4,0.2-0.6,0.6-0.6c0.2,0,0.4,0,0.6,0c0.8,0,0.8,0,0.8-0.9c0-0.6,0-1.1,0-1.7
	c0-3,0-6,0-9c0-0.8,0-0.8-0.9-0.9c-0.2,0-0.4,0-0.6,0c-0.3,0-0.5-0.1-0.5-0.5c0-0.1,0-0.2,0-0.2c-0.1-1.3-0.1-1.4,1.3-1.3
	c2,0,4,0,5.9,0.1c1.1,0,2.2,0.2,3.1,1c1.9,1.7,1.9,4.6,0,6.2C253.7,80.5,253.6,80.6,253.5,80.8z M248.1,84.8c0,0.7,0,1.5,0,2.2
	c0,0.4,0.1,0.6,0.6,0.6c1,0,2,0,3-0.2c1.2-0.3,2-1.2,2-2.5c0-1.3-0.7-2.4-2-2.7c-1-0.2-2-0.3-3-0.2c-0.5,0-0.7,0.2-0.6,0.7
	C248.1,83.4,248.1,84.1,248.1,84.8z M249.8,80c0.3,0,0.7,0,1.1-0.1c1.3-0.2,1.9-1,2-2.2c0.1-1.2-0.5-2-1.7-2.4
	c-0.8-0.2-1.6-0.1-2.4-0.2c-0.5,0-0.7,0.2-0.6,0.6c0,0.9,0,1.9,0,2.8c0,1.5-0.2,1.4,1.5,1.4C249.6,80,249.6,80,249.8,80z"/>
<path class="st2" d="M147.2,79.3c1-0.8,2.1-1.2,3.3-1.3c1-0.1,1.9,0.2,2.6,1c0.6,0.6,0.6,0.6,1.4,0.1c1-0.7,2.1-1.1,3.3-1.1
	c1.6,0,2.7,0.9,3,2.6c0.3,1.7,0.1,3.4,0.2,5.1c0,0.3,0,0.6,0,0.9c0,1.2-0.1,1.2,1.2,1.2c0.3,0,0.7-0.2,0.8,0.3
	c0.1,0.5,0.1,1.1-0.1,1.5c-0.1,0.2-0.4,0.1-0.6,0.1c-1,0-1.9,0-2.9,0c-0.6,0-0.7-0.2-0.7-0.8c0-2.1,0-4.3,0-6.4c0-0.3,0-0.7,0-1
	c-0.1-1.2-0.8-1.7-2-1.5c-0.5,0.1-1,0.3-1.4,0.5c-0.9,0.4-1.4,0.9-1.3,2c0.1,1.4,0,2.8,0,4.3c0,0.9,0,0.9,0.9,0.9c0.2,0,0.4,0,0.6,0
	c0.3,0,0.5,0.1,0.5,0.5c0,0.3,0,0.6,0,0.9c0,0.5-0.2,0.6-0.7,0.6c-0.9,0-1.9,0-2.8,0c-0.6,0-0.8-0.2-0.8-0.8c0-1.1,0-2.2,0-3.3
	c0-1.2,0-2.4,0-3.5c0.1-1.7-1.5-2.8-2.8-1.8c-0.3,0.2-0.6,0.1-0.9,0.3c-0.7,0.4-1.2,0.9-1.1,1.8c0.1,1.5,0,2.9,0,4.4
	c0,0.9,0,0.9,0.9,0.9c0.4,0,0.8-0.2,1,0.1c0.3,0.4,0.1,1,0.1,1.5c0,0.3-0.2,0.3-0.4,0.3c-1.8,0-3.6,0-5.3,0c-0.3,0-0.5-0.2-0.5-0.5
	c0-0.3,0-0.6,0-1c0-0.4,0.2-0.5,0.5-0.5c0.5,0,1.1,0.2,1.4-0.2c0.4-0.4,0.2-1.1,0.2-1.6c0-1.7,0-3.3,0-5c0-0.6-0.2-0.8-0.8-0.8
	c-0.2,0-0.3,0-0.5,0c-0.5,0-0.8-0.2-0.7-0.7c0-0.2,0-0.5,0-0.7c0-0.5,0.2-0.6,0.7-0.6c0.9,0,1.8,0,2.7,0c0.7,0,0.9,0.3,0.9,0.9
	C147,79.2,146.8,79.5,147.2,79.3z"/>
<path class="st2" d="M124,74.3c0-0.2,0.1-0.4,0-0.5c0-0.5,0.2-0.7,0.7-0.7c1.5-0.1,1.5-0.1,1.5,1.4c0,1.1,0,2.1,0,3.2
	c0,0.5-0.1,0.7-0.7,0.7c-0.9,0-1.7-0.1-2.3-1c-0.7-1.1-1.9-1.7-3.3-2.1c-1.1-0.3-2.1-0.2-3.1,0.1c-2.3,0.6-3.3,2.4-3.7,4.5
	c-0.2,1-0.2,2,0,3c0.5,3.1,3.8,6.1,7.7,4.5c1.5-0.6,2.6-1.8,3.3-3.3c0.4-1,0.4-1,1.3-0.5c1.4,0.8,1.4,0.9,0.7,2.3
	c-1.6,2.9-4.1,4-7.2,4.2c-0.9,0.1-1.9,0-2.8-0.2c-0.8-0.2-1.5-0.4-2.1-1c-1.4-1.2-2.7-2.4-3.2-4.3c-0.2-0.8-0.3-1.6-0.3-2.4
	c-0.1-1.6-0.1-3.3,0.7-4.8c1.2-2.6,3.4-3.9,6.2-4.3c2-0.3,4,0,5.8,1.1C123.3,74.1,123.6,74.3,124,74.3z"/>
<path class="st0" d="M19.2,47.9c0-0.9-0.1-1.8-0.1-2.7c0-0.8,0.1-0.9,0.8-0.8c1.9,0.3,3.7,0.9,5.4,1.9c2.7,1.6,4.8,3.8,6.2,6.6
	c1.2,2.3,2,4.7,1.8,7.3c-0.1,2.4-0.7,4.7-2,6.8c-1.1-0.8-1.8-1.8-2.7-2.6c1.3-2.2,1.2-4.5,0.9-6.9c-0.4-2.7-1.7-4.9-3.8-6.7
	C23.9,49.2,21.7,48.1,19.2,47.9z"/>
<path class="st2" d="M220.9,87.6c0.2,0,0.4,0.1,0.6,0.1c1.1,0,1.1,0,1,1.1c0,0.9,0,0.9-0.8,0.9c-0.9,0-1.7,0-2.6,0
	c-0.7,0-0.8-0.2-0.8-0.9c0-2,0-4.1,0-6.1c0-0.2,0-0.4,0-0.6c0.2-2.1-1.3-2.7-3.2-1.9c-0.3,0.1-0.7,0.3-1,0.5
	c-0.4,0.3-0.7,0.6-0.7,1.2c0.1,1.8,0.1,3.6,0.1,5.3c0,0.2,0,0.4,0.3,0.4c0.3,0,0.6,0,0.8,0.1c0.8,0,0.8,0,0.8,0.9
	c0,1.1,0,1.1-1.1,1.1c-1.5,0-3,0-4.5,0c-0.7,0-0.9-0.2-0.8-0.8c0-0.2,0-0.4,0-0.6c0-0.4,0.2-0.6,0.6-0.5c0.2,0,0.5,0,0.7,0
	c0.6,0.1,0.8-0.2,0.8-0.8c0-1.4,0-2.8,0-4.3c0-2.2,0-4.5,0-6.7c0-0.9,0-0.9-0.9-0.9c-0.4,0-0.8,0.2-1-0.2c-0.3-0.5-0.1-1-0.1-1.5
	c0-0.2,0.3-0.3,0.5-0.3c1.1,0,2.2,0,3.3,0c0.5,0,0.6,0.3,0.6,0.7c0,1.2,0,2.4,0,3.6c0,0.3,0,0.6,0,1c0,0.5,0.3,0.6,0.7,0.4
	c0.7-0.4,1.5-0.7,2.3-0.9c2-0.4,3.6,0.7,3.9,2.7c0.2,1.9,0.1,3.7,0.1,5.6c0,0.4,0,0.7,0,1.1C220.6,87.5,220.6,87.7,220.9,87.6z
	 M213.8,79.1C213.8,79.1,213.8,79,213.8,79.1c-0.1-0.1-0.1,0-0.2,0C213.7,79.1,213.7,79.1,213.8,79.1
	C213.8,79.1,213.8,79.1,213.8,79.1z"/>
<path class="st2" d="M201.7,73.1c1.9,0,3.9,0,5.8,0c0.9,0,0.9,0,0.9,0.9c0,1.5,0,3.1,0,4.6c0,0.8-0.1,0.8-1.1,0.8
	c-0.9,0-0.9,0-0.9-0.8c0-0.9,0-1.9,0-2.8c0-0.5-0.2-0.7-0.6-0.6c-0.9,0.1-2-0.3-2.6,0.2c-0.6,0.5-0.2,1.6-0.2,2.4c0,3,0,6,0,9
	c0,0.9,0,0.9,0.9,0.9c0,0,0.1,0,0.1,0c1.4-0.1,1.1,0.3,1.2,1.4c0,0.4-0.2,0.7-0.6,0.7c-1.9,0-3.7,0-5.6,0c-0.4,0-0.6-0.2-0.6-0.6
	c0-0.3,0-0.6,0-0.9c0-0.5,0.2-0.6,0.7-0.6c0.5,0,1.1,0.2,1.4-0.2c0.3-0.4,0.1-1,0.1-1.5c0-3.2,0-6.3,0-9.5c0-1.4,0.1-1.3-1.3-1.3
	c-0.5,0-1.1,0-1.6,0c-0.4,0-0.6,0.2-0.6,0.6c0,0.9,0,1.8,0,2.7c0,1,0,1-1,1c-0.2,0-0.3,0-0.5,0c-0.3,0-0.5-0.2-0.5-0.5
	c0-1.7,0-3.5,0-5.2c0-0.6,0.4-0.6,0.8-0.6c1.8,0,3.6,0,5.5,0C201.4,73.1,201.5,73.1,201.7,73.1z"/>
<path class="st3" d="M27.3,66.8c-0.3,1-1.2,1.6-2,2.2c-2.4,1.9-5.2,2.8-8.3,2.6c-3.7-0.3-6.7-2-8.9-5C6.8,64.7,6,62.4,6,60
	c0-5.4,3.4-10.3,8.7-11.8c0.4-0.1,0.8-0.1,1.2-0.1c0,0.2,0,0.5,0.1,0.7c0.1,0.5-0.2,0.7-0.6,0.9c-0.7,0.2-1.3,0.4-1.9,0.7
	c-4,2.1-5.8,5.5-5.6,9.9c0.2,3.9,2.8,7.4,6.6,8.8c3.8,1.4,8,0.4,10.8-2.6c0.3-0.3,0.5-0.6,0.8-0.9C26.5,66.1,27,66.4,27.3,66.8z"/>
<path class="st2" d="M176.2,87.2c-1,1.6-2.6,2.4-4.5,2.7c-2.4,0.3-4.6,0-6.3-2c-1-1.1-1.2-2.5-1.2-3.9c-0.1-2.4,0.9-4.2,2.8-5.4
	c2-1.3,5.2-0.9,7,0.6c1.6,1.3,2.2,3.1,2.4,5.2c-3.2,0-6.4,0-9.6,0c-0.1,2.1,1.4,3.4,2.8,3.6c1.5,0.2,2.8,0.1,3.9-1.1
	c0.6-0.6,1.2-0.8,1.9-0.2C175.7,86.9,176.1,86.7,176.2,87.2z M167,82.9c2.2,0,4.4,0,6.5,0c0.6,0,0.5-0.4,0.4-0.7
	c-0.6-1.9-3-3-4.9-2.3C167.8,80.3,167,81.4,167,82.9z"/>
<path class="st2" d="M102.2,83.7c0.1,0.6-0.2,0.8-0.7,0.7c-2,0-4,0-6.1,0c-0.9,0-1.9,0-2.8,0c0,1.7,0.9,3,2.3,3.4
	c1.6,0.5,3.1,0.4,4.4-0.9c0.6-0.6,1.2-0.8,1.9-0.3c0.3,0.2,0.7,0.1,0.9,0.6c-0.9,1-1.7,1.9-3.1,2.3c-1.7,0.5-3.4,0.6-5.1,0.1
	c-2.1-0.6-3.7-2.7-3.8-4.9c-0.1-1.2-0.2-2.3,0.3-3.4c1-2.4,3.4-3.7,5.8-3.5c2.7,0.2,4.6,1.5,5.5,4.1c0.2,0.4,0.3,0.9,0.4,1.4
	c0,0,0,0.1,0,0.1C102.1,83.6,102.1,83.6,102.2,83.7z M92.7,82.8c2.4,0,4.7,0,7,0c-0.3-1.9-1.9-3.2-3.8-3.2
	C94.2,79.7,92.9,80.9,92.7,82.8z"/>
<path class="st2" d="M77.7,87.1c-1.1,1.6-2.7,2.5-4.6,2.7c-2.4,0.3-4.6,0-6.3-2.1c-0.6-0.8-1.2-1.6-1.2-2.8c0-0.7,0-1.4,0-2.2
	c0.1-2,1.3-3.4,2.9-4.3c2.8-1.4,5.8-0.7,7.6,1.5c1,1.2,1.5,2.6,1.5,4.2c-0.3,0.3-0.7,0.2-1.1,0.2c-2.6,0-5.1,0-7.7,0
	c-1.1,0-1.1,0.1-0.8,1.1c0.8,2.5,4.1,3.4,6.3,1.7C76,86.1,76,86.1,77.7,87.1z M68.4,82.8c0.3,0.1,0.6,0.1,0.9,0.1c1.9,0,3.7,0,5.6,0
	c0.6,0,0.5-0.4,0.4-0.7c-0.6-1.9-2.9-3-4.8-2.3C69.3,80.2,68.4,81.4,68.4,82.8z"/>
<path class="st2" d="M235.9,84.3c-0.4,0.3-0.8,0.2-1.2,0.2c-2.5,0-5,0-7.5,0c-1,0-1.1,0.2-0.8,1.2c0.7,2,3,3.3,5.6,2
	c0.5-0.3,1.1-0.5,1.5-1c0.3-0.3,0.6-0.4,1-0.2c0.4,0.2,0.9,0.4,1.4,0.7c-0.6,1.2-1.6,1.8-2.7,2.3c-1.7,0.7-3.5,0.8-5.3,0.3
	c-0.7-0.2-1.4-0.5-1.9-1.2c-0.4-0.6-1.1-1-1.5-1.7c-0.5-0.9-0.5-1.8-0.5-2.8c-0.2-4.1,2.8-6.3,6-6.2c3.1,0.1,5.4,2,6,5.2
	C235.8,83.5,235.8,83.9,235.9,84.3z M226.3,82.8c1.7,0.2,6.3,0.1,7.1-0.1c-0.4-1.9-1.9-3.1-3.8-3.1
	C227.9,79.7,226.7,80.8,226.3,82.8z"/>
<path class="st2" d="M134.4,89.9c-3.1,0.2-5.7-2.5-5.6-6.2c0.1-4,3.2-6,6.3-5.9c3.5,0.2,6.1,2.8,5.8,6.5
	C140.7,87.8,137.9,90.2,134.4,89.9z M134.9,87.8c2.1,0,3.7-1.7,3.7-3.9c0-2.2-1.6-3.9-3.8-3.9c-2,0-3.6,1.7-3.6,3.9
	C131.2,86.1,132.8,87.8,134.9,87.8z"/>
<path class="st2" d="M259.3,80.2c-0.4,0-0.9-0.1-1.3-0.1c0-0.1-0.1-0.2-0.1-0.2c0-2.1-0.2-1.8,1.8-1.8c2.1,0,2.1,0,2.1,2
	c0,2,0,4,0,6c0,1.7,1,2.3,2.5,1.6c0.6-0.3,1.2-0.7,1.8-1c0.3-0.2,0.4-0.4,0.4-0.8c0-1.7,0-3.4,0-5.1c0-0.5-0.2-0.7-0.7-0.6
	c-0.2,0-0.3,0-0.5,0c-1.1,0-1,0-1-1c0-1.1-0.2-1.1,1-1.1c0.9,0,1.7,0,2.6,0c0.6,0,0.8,0.2,0.8,0.8c0,2.4,0,4.8,0,7.2
	c0,0.3,0,0.6,0,0.8c-0.1,0.7,0.2,0.8,0.8,0.8c1.3,0,1.3,0.1,1.2,1.4c0,0.5-0.3,0.6-0.7,0.6c-0.9,0-1.9,0-2.8,0
	c-0.6,0-0.8-0.2-0.7-0.8c0-0.1,0-0.2-0.1-0.4c-0.4-0.1-0.7,0.1-0.9,0.3c-0.9,0.7-2,0.9-3.1,1c-0.9,0.1-1.5-0.3-2.1-0.8
	c-0.3-0.3-0.5-0.6-0.6-1c-0.3-1.4-0.2-2.8-0.2-4.2c0-1.1,0-2.3,0-3.4C259.6,80.3,259.5,80.2,259.3,80.2z"/>
<path class="st2" d="M180.4,89.4c-0.5,0.6-1.2,0.3-1.8,0.2c-0.2,0-0.3-0.3-0.3-0.5c0-1,0-1.9,0-2.9c0-0.3,0.2-0.5,0.5-0.5
	c0.4,0,0.8,0,1.2,0c0.4,0.1,0.3,0.6,0.5,0.9c0.2,0.4,0.5,0.6,0.8,0.9c1,0.7,2.8,0.6,3.7-0.3c0.5-0.5,0.5-1.1-0.1-1.6
	c-0.6-0.4-1.2-0.5-1.9-0.6c-0.7-0.1-1.4-0.4-2.1-0.5c-1.3-0.2-2-1.1-2.5-2.2c-0.6-1.4,0.4-3.6,1.9-4.1c1.3-0.4,2.7-0.5,4,0
	c0.3,0.1,0.5,0.3,0.8,0c0.5-0.4,1.1-0.2,1.6-0.2c0.3,0,0.5,0.2,0.5,0.6c0,0.9,0,1.9,0,2.8c0,0.1,0,0.2-0.1,0.3
	c-0.3,0.3-1.7,0.1-1.9-0.3c-0.7-1.3-2.2-2.1-3.7-1.6c-0.7,0.3-1,0.6-1,1.3c0,0.7,0.3,1,1.1,1.1c1.2,0.2,2.5,0.4,3.6,0.7
	c2.2,0.7,3,2.8,2.3,4.4c-0.5,1.1-1.4,1.8-2.4,2c-1.3,0.3-2.8,0.6-4.1-0.2C180.9,89.2,180.7,89,180.4,89.4z"/>
<path class="st2" d="M281.6,86.3c-0.2,1.2-0.6,2.2-1.7,2.9c-1,0.6-2.1,0.7-3.2,0.7c-0.3,0-0.7-0.1-1-0.2c-0.9-0.3-1.9,0-2.8,0
	c-0.6,0-0.9-0.2-0.8-0.8c0-0.8,0-1.7,0-2.6c0-0.4,0.2-0.6,0.6-0.6c0.3,0,0.6,0,0.9,0c0.4,0,0.5,0.2,0.6,0.6c0.6,1.8,3.3,2.4,4.6,1
	c0.7-0.7,0.6-1.5-0.3-1.7c-1-0.3-2-0.7-3-0.8c-1.4-0.1-2.4-0.8-3.1-1.9c-0.9-1.4,0-3.8,1.5-4.4c1.2-0.5,2.4-0.6,3.7-0.3
	c0.6,0.2,1.1,0.2,1.7,0c0.3-0.1,0.6-0.1,0.8-0.1c0.9,0,0.9,0,0.9,0.9c0,0.8,0,1.5,0,2.3c0,0.4-0.1,0.7-0.6,0.7
	c-0.6,0-1.2,0.2-1.6-0.8c-0.4-1-2.7-1.6-3.7-1.2c-0.5,0.2-0.9,0.8-0.9,1.3c0,0.6,0.4,1,1.1,1.1c1.2,0.2,2.4,0.4,3.5,0.7
	c1.5,0.4,2.4,1.3,2.7,2.9C281.6,86.1,281.6,86.2,281.6,86.3z"/>
<path class="st2" d="M84,79.7c1-1.3,2.3-1.9,3.9-1.8c0.5,0,0.9,0.1,0.8,0.7c0,0.2,0,0.3,0,0.5c0,1,0,1-1,1c-0.7,0-1.4,0.1-2.1,0.4
	c-0.9,0.3-1.2,1-1.4,1.8C83.8,84,84,85.6,84,87.2c0,0.4,0.2,0.5,0.5,0.5c0.3,0,0.6,0,0.9,0c1.1,0,1.1,0,1.1,1.1c0,0.8,0,0.9-0.9,0.9
	c-1.8,0-3.6,0-5.3,0c-0.9,0-0.9,0-0.9-0.9c0-1.1,0-1.1,1-1.1c0.2,0,0.5,0,0.7,0c0.5,0,0.6-0.2,0.6-0.7c0-2.1,0-4.2,0-6.3
	c0-0.4-0.2-0.6-0.6-0.6c-0.2,0-0.4,0-0.6,0c-0.4,0-1,0.2-1.1-0.2c-0.2-0.5-0.1-1,0-1.6c0-0.4,0.4-0.4,0.7-0.4c0.9,0,1.8,0,2.7,0
	c0.6,0,0.8,0.2,0.8,0.8c0,0.3,0,0.6,0,0.8c0,0.2-0.1,0.4,0.2,0.5C84,80.2,84,80,84,79.7z"/>
<path class="st2" d="M22.9,56.9c0,2.3,0,4.5,0,6.8c0,0.4,0.1,0.8-0.2,1.2c-0.4,0.6-1.1,0.8-1.6,0.4c-0.4-0.4-0.7-0.3-1.1-0.3
	c-1.3,0-2.7,0-4,0c-0.4,0-0.8,0-1.2,0.3C14,65.8,13,65.1,13,64c0-2,0-4,0-6.1c0-0.4,0.2-0.8-0.3-1.1c0,0.6,0,1.2,0,1.7
	c0,0.3-0.2,0.5-0.5,0.5c-0.2,0-0.3-0.2-0.4-0.4c-0.2-0.8,0-1.5,0.8-2C13,56.5,13,56.2,13,56c0-0.4,0-0.9,0-1.3c0-0.7,0.3-1,1-1.1
	c2.5-0.3,5.1-0.3,7.6,0c0.4,0,0.8,0.1,1,0.5c-0.1,0.7,0.3,1.4-0.3,2c-0.2-0.1-0.4-0.2-0.6-0.2c-2.5,0-5,0-7.5,0
	c-0.5,0-0.8,0.3-0.8,0.9c0,1.1,0.1,2.2,0,3.3c0,0.8,0.3,1.3,1.1,1.6c2.3,0.7,4.5,0.7,6.8,0c0.9-0.3,1.1-0.6,1.1-1.6
	c0-1.1,0-2.3,0-3.4C22.8,56.4,22.9,56.6,22.9,56.9z M18.1,53.9c-0.9,0-1.7,0-2.6,0c-0.3,0-0.7,0.1-0.7,0.5c0,0.5,0.2,0.7,0.6,0.7
	c1.6,0,3.2,0,4.9,0c0.4,0,0.6-0.2,0.6-0.6c0-0.5-0.3-0.6-0.7-0.6C19.6,53.9,18.9,53.9,18.1,53.9z M15,63.6C15,63.6,15,63.6,15,63.6
	c0.3,0,0.6,0,0.8,0c0.3,0,0.5-0.2,0.5-0.6c0-0.3-0.2-0.5-0.5-0.5c-0.6,0-1.1-0.1-1.7,0c-0.3,0-0.6,0.2-0.6,0.5
	c0,0.4,0.3,0.5,0.7,0.6C14.5,63.6,14.7,63.6,15,63.6z M21.1,63.6c0.2,0,0.5,0,0.8-0.1c0.3,0,0.5-0.2,0.5-0.5c0-0.3-0.1-0.5-0.4-0.5
	c-0.7-0.1-1.3-0.2-2,0c-0.2,0.1-0.3,0.2-0.3,0.5c0,0.2,0.2,0.4,0.3,0.5C20.3,63.7,20.6,63.6,21.1,63.6z M18,64.6
	c0.4,0,0.8,0,1.3-0.1c0.1,0,0.3-0.2,0.2-0.3c0-0.1-0.1-0.2-0.2-0.2c-0.8,0-1.7,0-2.5,0c-0.2,0-0.3,0.1-0.3,0.3
	c0,0.2,0.1,0.3,0.3,0.3C17.1,64.6,17.5,64.6,18,64.6z"/>
<path class="st3" d="M19.2,47.9c2.6,0.2,4.8,1.3,6.7,3c2,1.8,3.4,4,3.8,6.7c0.3,2.4,0.4,4.7-0.9,6.9c-0.2-0.1-0.4-0.3-0.6-0.4
	c-0.7-0.4-0.8-0.9-0.6-1.7c0.9-3.2,0.3-6.3-1.7-9c-1.4-1.9-3.4-2.9-5.6-3.6c-0.1,0-0.3,0-0.5-0.1c-0.5-0.2-0.9-0.4-0.8-1.1
	C19.1,48.4,19.1,48.1,19.2,47.9z"/>
<path class="st4" d="M17.7,86.3c0.2,0.2,0.5,0.3,0.7,0c1.2,0.2,2.5,0.2,3.8,0.6c-1.4,1-2.8,0.6-4.1,0.6c-1.3,0-2.7,0.3-4.2-0.5
	C15.2,86.3,16.5,86.6,17.7,86.3z"/>
<path class="st1" d="M22.9,56.9c0-0.3-0.2-0.5-0.5-0.5c0-0.1-0.1-0.3-0.1-0.4c0.6-0.6,0.2-1.3,0.3-2c0.5,0.5,0.2,1.1,0.2,1.7
	c0,0.3,0,0.6,0.4,0.8c0.8,0.4,1.1,1.5,0.8,2.3C24,58.9,23.9,59,23.7,59c-0.2,0-0.4-0.1-0.4-0.3c-0.1-0.5-0.1-1,0-1.4
	C23.4,56.9,23.2,56.8,22.9,56.9z"/>
</svg>
